<?xml version="1.0" encoding="UTF-8"?>
<svg id="Layer_2" data-name="Layer 2" xmlns="http://www.w3.org/2000/svg" viewBox="0 0 244.54 62.46">
  <defs>
    <style>
      .cls-1 {
        fill: #fff;
      }

      .cls-1, .cls-2 {
        stroke-width: 0px;
      }

      .cls-2 {
        fill: #81858b;
      }
    </style>
  </defs>
  <g id="Layer_1-2" data-name="Layer 1">
    <g>
      <g>
        <path class="cls-1" d="M26.68,16.7c-3.17,2.95-5.21,4.6-9.04,2.61-5.96-3.08-9.12-1.26-10.53,5.21-.33,1.5-.5,3.03-.71,4.56-.83,6.13.16,8.69,4.09,10.63,4.96,2.45,11.06,1.81,14.36-2.05,1.08-1.26,1.4-3.63,1.23-5.42-.5-5.4.53-9.42,6.43-11.32,3.55-1.14,6.64-3.71,10.17-4.94,3.62-1.26,5,.11,5.17,3.96.23,4.97-2.4,8.37-6.01,10.86,2.41,2.66,4.7,5.18,7.39,8.15-2.62,1.53-4.53,2.65-6.64,3.87-2.43-3.79-4.35-7.7-9.66-7.29-.44,4.41.95,9.91-6.29,10.21-.25-1.7-.48-3.33-.8-5.53-1.88.96-3.52,1.94-5.28,2.64-2.25.9-4.53,2.01-6.89,2.27C3.83,46.23-.34,41.72.02,31.92c.49-13.29,11.59-19.32,19.9-17.72,2.12.41,4.1,1.49,6.76,2.5ZM40.61,20.25c-5.26-.06-8.09,4.34-7.21,11.22,7.79-2.16,9.48-4.78,7.21-11.22Z"/>
        <path class="cls-1" d="M83.71,42.61c-.28-3.8-.56-7.59-.86-11.75-1.68.23-2.97.4-4.57.61-.25,4.4.68,9.55-6.31,10.08-.59-6.53-1.13-13.04,1.6-19.26,2.23-5.08,7.6-6.47,12.88-5.99,4.56.41,9.33-1.54,12.37-2.14,5.54.59,9.58,1.03,14.04,1.5-2.87,3.99-6.88,4.06-11.21,4.21,0,5.79-.51,11.33.16,16.73.58,4.68-1.27,6.43-6.28,7.41v-24.17h-7.2c.52,5.16,1.07,10.12,1.49,15.09.45,5.34-.34,6.27-6.11,7.66ZM79.19,21.24c-.38,2.18-.76,4.35-1.17,6.75,4.74-.69,4.9-1.42,1.17-6.75Z"/>
        <path class="cls-1" d="M71.43,15.48c-2.98,1.33-5.9,2.81-8.95,3.98-6.86,2.64-6.88,2.58-5.95,10.85,3.68-1.38,7.26-2.71,10.83-4.05.18.37.35.75.53,1.12-3,1.54-6,3.09-9.01,4.61-3.04,1.54-3.93,8.25-1.04,10.02,1.13.69,3.35.25,4.79-.35,1.89-.79,3.5-2.25,5.79-3.8,0,1.55.25,2.39-.04,2.93-2.03,3.8-9.24,7.18-13.43,6.48-2.97-.49-4.84-1.98-4.88-5.14-.08-6.62-.24-13.25-.05-19.86.11-3.84,2.98-5.23,6.59-4.15,1.38.42,3.2-.21,4.71-.7,3.14-1.02,6.2-2.26,9.3-3.4.27.49.54.98.82,1.47Z"/>
        <path class="cls-1" d="M133.62,14.84c-2.56,1.09-5.02,2.63-7.69,3.2-7.13,1.52-7.68,2.1-6.48,10.11,2.58-.5,5.14-.99,7.7-1.49.12.21.25.42.37.62-2.59,1.54-5.18,3.07-8.18,4.85.13,1.01.09,2.4.5,3.65.98,3.01,3.3,3.52,5.93,1.6,1.54-1.13,3.25-2.04,5.28-3.3-1.13,6.04-10.74,10.88-15.12,8.05-1.25-.81-2.48-2.59-2.61-4.02-.5-5.81-.94-11.67-.56-17.46.13-1.98,2.74-3.79,4.22-5.68.27.47.53.95.8,1.42,1.38.14,2.87.69,4.1.34,3.74-1.05,7.38-2.45,11.06-3.71l.68,1.83Z"/>
      </g>
      <g>
        <path class="cls-2" d="M173.94,13.8c-2.96-.77-5.27-1.53-7.64-1.97-7.13-1.32-13.75-.88-18.56,5.64-.68.92-1.93,1.43-3.25,2.37.88-8.69,12.27-17.65,24.49-19.84-.03,2.49,5.5,5.85,7.38,4.04,4.25-4.1,8.91-.53,13.13-2.19l.3.95c-1.79,1.13-3.57,2.26-5.36,3.4.06.36.11.73.17,1.09,2.22.4,4.43.89,6.67,1.17,2.45.3,4.04-1,4.6-3.29.79-3.22,2.63-3.8,5.47-2.64,2.75,1.13,5.54,2.19,8.9,3.52-2.84,7-5.51,14.02-8.56,20.87-1.4,3.15-4.23,4.45-7.78,3.53-.88-.23-1.76-.53-2.66-.62-3.58-.36-5.69-2.19-6.14-5.83-.08-.64-.17-1.4-.55-1.85-.73-.88-1.75-2.25-2.52-2.17-.91.09-2.26,1.43-2.4,2.37-.65,4.36-.68,8.81-1.41,13.16-1.29,7.68-2.85,15.31-4.48,22.92-.28,1.3-1.49,2.41-2.56,4.04-3.41-6.42-10.11-3.78-13.65-6.58,5.49-14.07,10.95-28.07,16.42-42.09ZM187.9,17.31c.64,2.37,1.16,4.51,1.82,6.61,1.06,3.38,4.27,3.17,6.8,3.43.98.1,2.65-1.69,3.21-2.97,1.67-3.8,3.01-7.75,4.35-11.69,1.43-4.21.1-6.46-4.27-6.31-1.73.06-3.79,1.65-5,3.12-1.86,2.27-3.25,3.31-6.42,1.94-4.82-2.08-6.58-.48-6.28,5.17,1.84.22,3.75.45,5.8.69ZM180.9,6.01c-.27-.11-.54-.21-.81-.32-5.98,15.79-11.97,31.58-18.08,47.71,1.37.51,2.53,1.03,3.74,1.37,4.64,1.28,5.46.81,6.36-3.89.63-3.32,1.12-6.67,1.61-10.01,1.04-7.05,1.79-14.15,3.15-21.13.91-4.66,2.66-9.16,4.03-13.73ZM150.69,12.74c.39,0,.82.13,1.08-.02,6.7-3.93,13.68-5.36,21.26-2.75.62.21,1.71-.96,3.01-1.74-4.09-1.24-7.14-1.92-9.99-3.09-6.08-2.49-13.38.97-15.37,7.6Z"/>
        <path class="cls-2" d="M204.15,34.13c0,3.35.11,6.7-.03,10.04-.13,3.1.9,4.68,4.26,4.25,4.89-.63,9.78-1.23,14.68-1.67,4.52-.4,9.06-.64,13.6-.81,2.08-.08,3.74-.51,3.53-3-.93-10.74-1.93-21.47-2.95-32.2-.04-.45-.51-.87-.91-1.53-6.86,1.24-13.71,2.48-21.06,3.81,2.47-2.47,14.67-5.34,25.85-6.35.24,2.1.52,4.23.72,6.36.88,9.32,1.68,18.64,2.62,27.95.49,4.92-1.13,6.65-6.85,7.13-6.99.59-14,.84-20.99,1.41-4.13.34-8.24.97-12.35,1.54-3.18.44-4.17-1.08-4.04-4.03.14-3.12-.18-6.27.14-9.35.15-1.44,1.33-2.78,2.04-4.16l1.75.6Z"/>
        <path class="cls-2" d="M219.6,33.14c1.23.58,2.47,1.68,3.68,1.65,3.33-.09,6.64-.8,9.97-.96,1.03-.05,2.47.63,3.04,1.45.36.52-.28,2.22-.96,2.86-2.92,2.73-4.3,2.42-7.14-1.95-3.98.97-8.26,2.09-12.59,3.04-1.01.22-2.4.19-3.14-.36-.54-.4-.65-1.99-.33-2.8,1.61-4.04,3.43-8.01,4.78-11.08-.57-2.06-1.85-4.45-1.27-5.07,1.46-1.55,3.72-2.41,5.78-3.27.34-.14,1.76,1.07,1.78,1.69.03.98-.45,2.22-1.14,2.95-2.48,2.64-3.07,5.94-4.33,9.01.42.36.85.71,1.27,1.07,1.61-1.33,3.24-2.65,4.84-4,1.27-1.06,2.36-2.48,3.81-3.11,1.17-.51,2.76-.1,4.16-.1-.31,1.67-.11,3.82-1.08,4.89-.99,1.09-3.11,1.29-4.79,1.59-1.92.35-3.89.38-5.84.55-.17.65-.33,1.31-.5,1.96Z"/>
        <path class="cls-2" d="M159.45.12c-1.9,1.02-2.94,1.68-4.05,2.16-5.05,2.19-9.5,4.93-11.97,10.26-.64,1.39-2.56,2.2-4.38,3.68,1.12-5.72,13.21-15.24,20.4-16.1Z"/>
      </g>
    </g>
  </g>
</svg>