<?xml version="1.0" encoding="UTF-8"?>
<svg id="Layer_2" data-name="Layer 2" xmlns="http://www.w3.org/2000/svg" viewBox="0 0 109.37 49.35">
  <defs>
    <style>
      .cls-1 {
        fill: #fff;
      }

      .cls-1, .cls-2 {
        stroke-width: 0px;
      }

      .cls-2 {
        fill: #81858b;
      }
    </style>
  </defs>
  <g id="Layer_1-2" data-name="Layer 1">
    <g>
      <path class="cls-1" d="M56.25,40.11c-.28-6.41-.56-12.55-.8-18.68-.18-4.65.02-4.82-5.28-3.23-.72.22-1.39.6-2.41.43.61-.54,1.14-1.25,1.84-1.58,3.41-1.58,6.82-2.91,10.76-2.78,3.49.11,7.01-.44,10.99-.73.85,4.16,1.79,8.72,2.74,13.35h2.71c-2.91,1.45-2.02,3.73-1.33,5.8.95,2.83-.47,3.9-3.15,4.49-.64-2.51-1.28-4.98-1.91-7.44-.27-.13-.54-.26-.8-.39-.57.83-1.46,1.59-1.65,2.5-.49,2.36-1.62,3.87-4.38,4.3,1.32-6.9,2.62-13.65,3.91-20.39-2.34.35-4.32.79-6.31.88-1.69.07-2.1.73-2.01,2.31.32,5.52.41,11.06.83,16.58.2,2.69-1,3.89-3.74,4.59ZM69.02,27.37c.27,0,.55-.01.82-.02-.09-.62-.18-1.24-.27-1.87-.13,0-.26.02-.38.02-.05.62-.11,1.24-.16,1.86Z"/>
      <path class="cls-2" d="M8.98,25.15c-.48-.34-1.17-1.07-1.4-.95-1.32.7-2.84,1.38-3.68,2.52-.6.81-.22,2.34-.29,3.71,2.29-.28,4.27-.23,5.28-2.48.21-.48.94-.86,1.5-1.03,2.02-.59,4.07-1.07,6.4-1.66.13,1.66.43,3.65.33,5.61-.03.56-1.2,1.29-1.97,1.53-2.02.63-4.11,1.02-6.34,1.55-.24-.88-.46-1.7-.81-3.01-2.55.76-5.03,1.51-7.71,2.31-.07-.24-.32-.64-.27-1,1.08-7.86,2.13-15.73,3.37-23.56.17-1.09,1.36-2.02,2.07-3.02l.89.48c-.39,2.98-.78,5.96-1.21,9.2,2.66-.3,4.18-.77,3.51-3.51-.36-1.48,1.74-3.43,2.67-2.63,1.55,1.33,2.6.25,3.86-.11.66-.19,1.32-.37,2-.56.89,5.33-2.41,9.16-7.36,8.68-.44-.04-.86-1.14-1.23-1.11-1.42.13-3.18-.1-3.53,1.99-.29,1.75-.55,3.5-.86,5.49,2.32-.02,4.07-.18,5.01-2.63.71-1.85,4.27-3.39,7.33-3.71,1.15,3.78.7,5-2.74,6.45-1.54.65-3.23.95-4.85,1.41,0,0,.04.04.04.04ZM12.43,14.96c3.37-.72,3.67-1.27,2.51-4.44-3.02.55-3.24.91-2.51,4.44ZM11.32,31.33l1.16.6c.45-.75,1.05-1.46,1.28-2.27.08-.28-.78-.82-1.21-1.24-.41.97-.82,1.94-1.24,2.9ZM12.08,22.71c.49.05.97.1,1.46.15.07-1.14.14-2.28.21-3.42-.44-.04-.87-.08-1.31-.12-.12,1.13-.24,2.26-.35,3.39Z"/>
      <path class="cls-1" d="M22.9,10.34c.09.82.17,1.61.27,2.54,2.05.63,4.18,1.17,6.24,1.94,4.32,1.62,7.5,4.49,7.68,9.31.18,4.83-2.15,8.54-6.55,10.76-2.29,1.16-4.54,2.42-6.92,3.33-1.75.67-3.69.86-5.26,1.21.28-8.65.64-16.89.77-25.12.04-2.66,1.06-3.92,3.78-3.97ZM22.74,16.58v20.08c5.89-.51,10.65-5.04,10.68-10.32.02-4.7-4.43-9-10.68-9.77Z"/>
      <path class="cls-1" d="M43.34,13.1c.39,1.26.72,2.34,1.07,3.41,2.03,6.27,4.01,12.56,6.11,18.81,1.06,3.17-1.68,2.81-3.26,3.94-.98-2.72-1.88-5.22-2.78-7.7-2.44-.02-3.96.57-4.54,3.2-.25,1.12-1.94,1.93-2.97,2.88-.24-.16-.47-.33-.71-.49.54-2.74,1.19-5.47,1.6-8.23.55-3.71.86-7.44,1.35-11.16.42-3.13.47-3.12,4.13-4.66ZM42.02,25.41c-.25,1.66-.47,3.07-.69,4.58,2.7-.73,2.79-1.32.69-4.58Z"/>
      <path class="cls-2" d="M94.08,12.45c2.79-.21,5.29-.09,7.64-2.04,1.44-1.19,3.99-1.06,6.05-1.46.27-.05.84.2.88.39.32,1.74.95,3.56.64,5.2-.16.85-1.94,1.65-3.13,2-1.6.46-3.32.46-5.07.67-.76-1.44-.47-3.95-3.3-3.11-1.52.46-3.02.08-4.6,1.42-1.82,1.54-4.59,2.12-7.05,2.66-.54.12-1.5-1.64-2.52-2.83h-7.57c-.05-.24-.11-.48-.16-.72,1.79-.39,3.56-.89,5.36-1.14,1.32-.18,2.5.02,3.04-1.82.34-1.17,1.21-2.19,3.24-1.04,1.35.76,3.72-.29,5.79-.54.23.71.46,1.45.75,2.35ZM86.86,13.94c1.02,1.12,1.59,1.75,2.16,2.37.53-.68,1.38-1.3,1.49-2.04.09-.59-.71-1.32-1.11-1.99-.68.44-1.37.89-2.54,1.66ZM106.68,13.38c-.82-.98-1.4-1.67-1.97-2.37-.43.54-1.29,1.17-1.2,1.62.16.85.87,1.59,1.34,2.38.5-.44,1-.89,1.83-1.63Z"/>
      <path class="cls-2" d="M83.83,30.67c.76-.64,1.49-1.34,2.29-1.92,1.06-.77,2.12-1.58,3.3-2.12.85-.39,1.9-.46,2.86-.46.93,0,2.53.02,2.68.45.51,1.38.75,3.06-1.09,3.91-1.78.82-3.53,1.79-5.4,2.27-.88.22-2.02-.56-2.98-1.17-1.89-.2-2.66.81-2.7,2.79-.04,2.04-.22,4.21-3.37,4.61,0-1.94-.06-3.84.01-5.74.11-3.12.38-6.23.44-9.35.06-3.29-.08-3.35-3.3-2.83-.33.05-.67,0-1.13,0,1.12-1.44,5.56-2.94,6.64-2.13.55.42.83,1.49.86,2.28.1,2.92.04,5.85.04,8.78.28.21.56.41.85.62ZM91.07,27.01c-.86,1.21-1.53,1.79-1.67,2.48-.09.41.65.99,1.01,1.49.57-.55,1.32-1.02,1.64-1.69.17-.36-.42-1.07-.97-2.28Z"/>
      <path class="cls-2" d="M4.79,1.34c1-.45,2-.9,2.99-1.34.12.28.25.56.37.84-1.01.42-2.01.84-3.02,1.26-.12-.25-.23-.5-.35-.75Z"/>
      <path class="cls-2" d="M81.44,47.56l-3.67,1.79c-.09-.19-.19-.37-.28-.56,1.22-.63,2.43-1.26,3.65-1.9.1.22.2.44.3.67Z"/>
      <path class="cls-2" d="M81.64,42.55l-3.15,1.61c-.1-.15-.19-.3-.29-.45,1-.6,2.01-1.2,3.01-1.8.14.21.28.43.42.64Z"/>
      <path class="cls-2" d="M7.53,3.8c-.69.35-1.38.7-2.07,1.06-.08-.15-.16-.3-.24-.45.68-.36,1.37-.71,2.05-1.07.08.15.17.31.25.46Z"/>
      <path class="cls-2" d="M8.94,25.11s.04.04.04.04-.04-.04-.04-.04Z"/>
    </g>
  </g>
</svg>