<?xml version="1.0" encoding="UTF-8"?>
<svg id="Layer_2" data-name="Layer 2" xmlns="http://www.w3.org/2000/svg" viewBox="0 0 222.5 192.49">
  <defs>
    <style>
      .cls-1 {
        fill: #203749;
      }

      .cls-1, .cls-2 {
        stroke-width: 0px;
      }

      .cls-2 {
        fill: #fff;
      }
    </style>
  </defs>
  <g id="Layer_1-2" data-name="Layer 1">
    <g>
      <g>
        <path class="cls-2" d="M43.38,137.71c-1.13,12.74-14.8,18.25-25.57,11.34.25-9.7.1-18.87-2.74-28.3,1.42-.83,3.03-1.78,5.07-2.97.83,2.19,1.5,3.95,2,5.27,2.83-2.16,5.61-4.59,8.72-6.5,1.18-.73,3.79-.92,4.53-.17,1.18,1.21,2.24,3.69,1.78,5.14-1.11,3.52-3.13,6.76-4.86,10.27,1.98.3,4.46.68,7.33,1.11.07-1.24.12-2.35.2-3.46.29-3.92,1.86-7.08,5.55-8.84,2.9-1.38,5.8-2.77,8.8-3.9,3.85-1.46,6.64.63,8.85,6.31,2.96-5.99,8.12-9,14.46-9.94,6.95-1.03,11.08,3.8,10.17,10.72-1.2,9.16-11.48,14.21-18.7,11.94-3.26-1.03-5.68-2.46-5.89-6.62-4.89,8.68-12.62,12.55-19.7,8.59ZM68.46,124.4c-.12,5.96,2.13,8.11,8.72,8.35,3.03.11,5-3.05,5.12-8.23.12-4.99-2.65-7.94-7.54-8.01-4.46-.06-6.19,2.09-6.31,7.89ZM23.41,140.01c.19,6.94,2.04,8.72,8.51,8.57,3.39-.07,5.8-2.79,5.76-6.51-.04-4.4-3.82-6.75-10.25-6.61-3.46.07-4.73,1.63-4.03,4.54ZM57.55,128.26c.05-4.16-2.46-8.8-4.29-7.91-2.93,1.42-6.18,3.58-7.62,6.31-1.79,3.4,2.5,8.46,6.86,9.19,2.59.43,4.41-1.99,4.95-6.59.05-.39.08-.77.1-.99ZM30.3,119.74c-2.29,1.83-4.61,3.61-6.82,5.51-.49.42-.89,1.27-.86,1.89.13,2.4.45,4.78.72,7.36,7.46-3.75,10.4-10.7,6.96-14.77Z"/>
        <path class="cls-2" d="M136.14,68.78c.23,1.43.41,2.57.59,3.69,4.74-1.82,9.36-3.59,13.98-5.36-.82,3.47-2.86,4.57-5.79,4.76-5.4.34-10.48,2.81-7.24,10.46,4.36-2.98,9.88-3.5,13.41-8.19,2.47-3.29,4.79-2.67,6.72,1.03,1.9,3.66,3.74,7.35,6.38,10.82-.16-2.94-.25-5.89-.51-8.83-.22-2.47,1.91-5.55,4.22-5.46.73.03,1.42,1.14,1.88.8,8.2-1.2,16.4-2.39,24.6-3.59.16.45.33.9.49,1.35-2.6,1.02-5.12,2.41-7.82,2.94-2.45.48-3.27,1.3-3.17,3.81.23,5.89.03,11.79.29,17.68.17,3.68-1.6,5.15-5.79,5.75,0-7.45-.03-14.62.02-21.8.02-2.65-.25-4.6-3.84-4.21-3.04.33-5.61.1-5.16,4.6.51,5.2.09,10.48.39,15.7.19,3.35-2.13,4.43-4.41,5.01-.83.21-2.56-1.67-3.31-2.93-2.09-3.54-3.89-7.26-6.26-11.79-.75,4.86,1.25,10.23-5.61,10.75-.13-1.65-.26-3.3-.39-4.92-3.16,1.53-6.14,3.4-9.39,4.44-4.71,1.5-7.05,0-7.78-4.83-.77-5.04-1-10.15-1.66-15.21-.49-3.75,1.32-5.54,5.17-6.47ZM149.8,77.99c-3.87,2-7.39,3.6-10.68,5.6-3.24,1.97-1.19,4.85-.08,6.76.63,1.09,3.31,1.34,5.04,1.26.68-.03,1.02-2.64,1.93-2.98,5.29-2.01,3.92-6.24,3.79-10.63Z"/>
        <path class="cls-2" d="M54.16,104.37c-.2-2.8-.41-5.6-.6-8.3-3.94,3.11-7.54,6.33-11.52,8.98-4.27,2.84-9.34,3.66-13.72.82-2.71-1.76-5.89-5.04-6.19-7.91-1.44-13.68,4.65-23.72,17.65-28.34,3.86-1.37,7.31.15,10.58,3.32-1.81,1.26-3.25,2.27-4.61,3.22-7.16-5.18-11.92-4.39-15.35,3.49-2.01,4.63-2.7,10.05-2.96,15.17-.23,4.58,4.89,8.63,9.86,8.95,4.52.29,9.61-3.22,10.75-7.49.62-2.32-.79-2.7-2.63-2.45-3.14.43-6.27.89-9.51.76,6.67-5.23,14.96-3.41,22.58-5.73.42,4.08,1.32,7.76.95,11.29-.19,1.78-2.68,3.32-4.13,4.97-.39-.25-.77-.51-1.16-.76Z"/>
        <path class="cls-2" d="M67.15,90.33c-1.39,4.34,2.39,10.5-5.69,12.14,0-1.46.09-2.69-.02-3.91-.44-5.02-1.14-10.02-1.3-15.05-.07-2.1.59-4.45,1.6-6.31,2.53-4.68,6.87-7.43,11.67-9.32,3.73-1.47,5.78-.49,5.98,3.46.16,3.18-.81,6.56-1.95,9.61-.73,1.95-2.68,3.45-4.05,5.11,1.81.95,3.76,1.58,5.19,2.82,1.51,1.29,3.24,3.06,3.49,4.81.14.97-2.56,2.35-3.99,3.55-4.22-5.74-6.42-7.1-10.94-6.9ZM66.67,88.64c4.3-3.67,7.83-6.83,7.65-12-.07-1.91-1.46-3.77-2.24-5.66-1.68,1.42-3.46,2.75-4.97,4.33-.51.53-.41,1.73-.43,2.63-.04,3.24-.02,6.48-.02,10.7Z"/>
        <path class="cls-2" d="M195.82,118.71c-3.04-4.01-7.68-3.66-9.48-.13-2.2,4.32-3.72,8.64-2.69,13.55.5,2.38,1.43,4.27,4.37,3.98,2.88-.28,3.94-2.06,4.1-4.94-2.28-.1-4.4-.2-6.92-.32,3.04-2.91,13.02-4.75,15.78-3.26.22.12.59.28.6.45.2,3.24.84,6.57.31,9.69-.24,1.43-2.81,2.47-5.19,4.37v-8.65c-3.49,2-6.36,3.92-9.45,5.36-5.41,2.52-8.49.66-9.24-5.28-1.04-8.28,4.5-18.31,12.25-20.87,2.6-.86,5.86.14,8.77.58.35.05.94,2.38.5,2.97-.79,1.06-2.28,1.61-3.7,2.51Z"/>
        <path class="cls-2" d="M166.27,123.76c.78-5.03-1.59-10.6,5.8-11.14,0,5.93.27,11.8-.19,17.62-.11,1.47-2.39,3.01-4,3.97-.49.29-2.32-1.03-3.09-1.97-1.97-2.38-3.69-4.97-5.79-7.85-1.7,3.96,1.01,9.86-5.98,10.35,0-5.88-.25-11.72.18-17.51.1-1.36,2.33-2.89,3.91-3.67.63-.32,2.45.91,3.22,1.85,1.95,2.39,3.6,5.01,5.94,8.36Z"/>
        <path class="cls-2" d="M94.96,99.43c.31-3.7.63-7.4.99-11.66-2.52.61-4.35,1.06-6.23,1.52-.72,3.61,1.6,8.64-5.52,9.24,0-3.32-.31-6.65.09-9.89.43-3.48,1.58-6.87,2.32-10.31.83-3.87,3.87-5.57,7.09-6.54,1.19-.36,3.71.9,4.38,2.11,3.85,6.94,3.66,14.62,2.87,22.18-.15,1.47-2.79,2.67-4.28,4-.57-.22-1.14-.43-1.71-.65ZM95.52,85.16c-.91-3.06-1.74-5.85-2.57-8.65l-1.18.16c-.73,3.09-1.47,6.17-2.34,9.83,2.24-.5,3.81-.85,6.09-1.35Z"/>
        <path class="cls-2" d="M112.09,73.14c3.03-.1,6.43.91,8.6,4.37,2.43,3.88,2.57,8.01.09,11.85-3.38,5.24-8.5,8.25-14.38,9.97-2.81.82-3.55-.03-3.16-3.19.59-4.76.66-9.66.3-14.46-.43-5.68-.38-7.69,8.55-8.55ZM109.18,95.69c4.62-.56,7.97-4.87,7.8-10-.16-4.88-3.02-8.04-7.8-8.23v18.23Z"/>
        <path class="cls-2" d="M91.88,131.17c2.22-2.3,4.18-3.64,7.22-1.56,1.24.85,3.16.73,4.77,1.05.33-.35.66-.7.99-1.05-1.1-1.69-1.96-3.64-3.36-5.02-1.85-1.82-4.27-3.06-6.2-4.82-4.11-3.74-3.6-7.17,1.27-9.77,5.52-2.96,12.38-2.38,15.96,1.45-2.08,1.89-3.89,3.48-7.1,1.56-1.87-1.12-4.46-1.04-6.72-1.49-.28.33-.56.66-.84,1,1.09,1.56,1.98,3.33,3.33,4.61,1.89,1.79,4.28,3.06,6.18,4.84,3.73,3.5,3.35,6.74-.9,9.5-5.43,3.52-10.32,3.52-14.59-.28Z"/>
        <path class="cls-2" d="M139.84,112.12c-3.27,4.92-8.16,2.01-12.33,3.28-.35,4.7-1,9.48-.97,14.26.02,3.7-1.85,5.05-5.67,6.04.19-2.72.4-5.08.52-7.44.14-2.74.23-5.48.28-8.23.09-5.14-.09-5.27-5.23-4.7-.59.07-1.19,0-1.92,0,2.63-4.01,13.55-5.37,25.32-3.22Z"/>
        <path class="cls-2" d="M128.83,70.46c0,9,.21,16.66-.19,24.29-.07,1.36-2.65,2.59-4.79,4.52,0-9.01-.2-16.78.2-24.51.07-1.33,2.72-2.52,4.78-4.29Z"/>
        <path class="cls-2" d="M148.34,114.18c-.2,1.39-.51,2.77-.56,4.16-.13,3.65-.32,7.31-.16,10.95.17,3.81-2.06,4.86-5.26,5.41,0-5.65-.37-11.14.21-16.52.19-1.76,2.82-3.25,4.34-4.87.48.29.96.58,1.43.88Z"/>
      </g>
      <g>
        <path class="cls-1" d="M124.15,36.06c-1.01.21-2.02.42-3.24.68-2.07-3.25-4.19-6.52-6.24-9.84-1.29-2.08-2.73-2.78-5.21-1.69-5.38,2.36-10.8,2.79-16.24-.2-.85-.47-2.88-.01-3.61.74-3.53,3.66-6.88,7.5-10.09,11.45-.52.64-.18,2.16.06,3.21,1.13,4.87.42,9.47-3.74,12.37-3.5,2.43-3.02,4.6-1.15,7.43.5.75.91,1.55,1.6,2.74-1.32.73-2.5,1.39-3.86,2.14-.79-1.27-1.6-2.18-1.98-3.25-1.15-3.28-3.22-4.36-6.77-4.5-3.51-.14-4.39,2.01-5.9,4.13-1.37,1.92-3.07,3.6-4.63,5.39-.35-.26-.69-.51-1.04-.77,1.83-3,3.66-6.01,5.39-8.84-.19-.54-.2-.87-.37-1.01-7.34-5.93-7.5-8.77-.56-15.1,5.42-4.94,11.46-7.67,19.03-5.11,1.06.36,2.98-.43,3.88-1.32,2.03-2.01,3.55-4.55,5.52-6.64,2.77-2.94,4.46-5.53,2.19-9.95-2.14-4.16.28-8.97,4.26-10.63.12.33.43.73.34.98-1.4,3.89-2.05,7.79,1.32,10.95,4.32,4.06,9.46,6.39,15.43,4.64,3.04-.89,5.38-3.18,5.85-6.65.6-4.44-.54-8.39-4.02-11.33-4.87-4.13-13.18-4.49-18.64-1.07-1.52.95-3.14,1.74-4.79,2.42,6.42-5.48,13.33-9.34,22.22-6.47,7.47,2.41,11.35,9.81,8.5,17.14-1.06,2.72-.78,4.53.96,6.71,1.79,2.24,3.28,4.75,4.63,7.29.62,1.16.6,2.66.87,4.01,0,0,.01-.06.01-.06ZM66.08,37.61c-4.53-.04-10.32,5.21-10.29,9.34.03,4.01,5.76,8.2,11.06,8.08,5.82-.13,9.31-3.68,9.26-9.44-.04-5.07-3.63-7.93-10.03-7.99Z"/>
        <path class="cls-1" d="M124.15,36.06s-.01.06-.01.06c6.93-3.11,13.92-5.68,21.33-1.49,6.74,3.81,8.73,12.02,4.06,16.91-1.41,1.47-3.23,2.55-5.08,3.99,1.45,2.41,2.79,4.62,4.18,6.93-1.99,2.53-3.6,2.73-5.4-.15-1.67-2.67-3.03-6.33-7.4-4.31-1.4.65-2.72,1.64-3.81,2.73-1.48,1.48-2.71,3.21-4.04,4.84-.34-.22-.68-.44-1.03-.66,1.02-2.25,2.03-4.51,3.05-6.76l-1,.6c-2.63-2.95-6.46-5.51-7.59-8.95-1.47-4.49-.66-9.65,2.75-13.73ZM124.93,44.53c-.14,5.18,1.41,7.64,5.73,9.27,3.44,1.29,6.65,1.69,10.53.31,2.83-1,5.65-.83,6.38-4.47.83-4.16,0-7.85-3.29-10.65-4.63-3.95-10.01-5.08-15.73-3.02-4.38,1.57-2.69,5.97-3.62,8.56Z"/>
        <path class="cls-1" d="M199.68,146.95c.53,1.24,1.04,2.28,1.43,3.36,1.96,5.43,4.3,9.19,11.5,9.52,9.15.42,12.7,10.62,7.46,19.04-2.83,4.54-7.21,7.36-12.14,8.75-8.58,2.43-17.83-7.02-15.03-15.48,1.04-3.13,3.83-5.83,6.27-8.27,1.73-1.73,1.98-3.09.91-5.11-1.1-2.07-1.77-4.41-3.06-6.34-2.33-3.49-.34-4.5,2.67-5.47ZM207.27,161.97c-5.15-.13-10.67,5.53-10.82,11.08-.17,6.36,5.48,12.12,12.14,12.36,5.22.19,9.33-5.21,9.6-12.6.25-6.84-3.6-10.66-10.92-10.84Z"/>
        <path class="cls-1" d="M127.33,163.15c-3.95,5.13-3.73,10.43-1.8,15.32,1.65,4.18,6,5.08,10.27,5.09,4.92.02,7.86-2.41,8.78-7.21,1.05-5.46-.94-10.58-5.25-11.84-3.1-.9-6.5-.74-10.1-1.08-1.35-3.73-2.87-8.53-4.84-13.13-1.31-3.05-.36-4.38,2.96-5.13,1.44,3.92,3,7.86,4.33,11.88.88,2.66,2.12,3.91,5.29,3.81,6.53-.22,9.99,2.33,11.41,7.44,1.62,5.85-.39,10.72-5.82,14.02-4.8,2.91-9.69,5.21-15.53,3.03-4.62-1.72-6.72-4.91-6.75-10.74-.03-7.15,1.28-9.43,7.05-11.48Z"/>
        <path class="cls-1" d="M49.4,150.62c1.18,3.24,2.31,6.28,3.4,9.34.8,2.25,1.83,3.24,4.65,2.59,6.64-1.53,11.04.65,12.95,5.75,2.39,6.39.43,12.07-4.96,15.76-5.49,3.76-11.21,3.86-17.21,1.86-5.47-1.82-7.27-4.23-6.75-9.89.16-1.73,1.64-3.47,2.84-4.93,1.05-1.28,2.54-2.22,3.91-3.21,1.84-1.32,1.85-2.81,1-4.77-1.09-2.51-1.86-5.17-2.78-7.75-.86-2.43-.29-4.08,2.96-4.74ZM67.34,175.27c.01-5.13-2.28-8.7-6.5-10.14-4.67-1.59-7.82-.54-11.29,3.78-.82,1.02-1.53,2.12-2.4,3.09-2.83,3.15-2.72,7.09.91,9.28,2.6,1.57,5.72,2.6,8.74,3.13,7.2,1.27,10.53-1.79,10.55-9.15Z"/>
        <path class="cls-1" d="M166.3,165.03c-.33,3.63-.72,6.2-.77,8.79-.12,6.38,5.08,11.44,11.52,11.06,1.13-.07,2.63-1.22,3.2-2.28,2.22-4.11,2.17-8.44-.54-12.26-2.76-3.89-6.87-3.5-11.14-2.59,3.67-1.46,3.77-4.47,3.88-7.7.11-3.39.53-6.8,1.25-10.11.33-1.49,1.73-2.74,2.64-4.1.43.16.86.33,1.29.49-.24,2.77-.42,5.54-.74,8.3-.56,4.67-1.63,9.03,4.58,11.52,4.37,1.76,5.48,8.56,3.38,13.61-2.15,5.16-8.26,8.41-13.8,7.33-8.49-1.65-12.73-10.52-8.62-18.29.67-1.27,2.13-2.11,3.87-3.76Z"/>
        <path class="cls-1" d="M22.86,155.89c-.58,1.67-.98,2.73-1.33,3.81-1.31,4.06-2.04,7.26,2.38,10.84,8.83,7.16,4.78,15.67-2.81,19.4-2.94,1.44-6.38,2.43-9.63,2.54-4.66.16-9-1.7-10.76-6.41-1.75-4.67-.13-9.23,3.05-12.72,2.12-2.33,5.07-4.52,8.04-5.31,3.94-1.05,5.16-3.32,5.65-6.78.38-2.69,1.23-5.07,5.4-5.38ZM13.25,169.74c-5.23-.2-8.81,4.18-9.01,11.02-.16,5.34,4.7,9.27,11.72,9.46,4.95.14,8.27-3.02,8.54-8.12.31-5.91-5.36-12.14-11.25-12.36Z"/>
        <path class="cls-1" d="M101.84,147.86c-.88,4.2-1.72,8.22-2.56,12.26.51.23.85.47,1.21.52,6.89.96,8.85,2.53,9.92,7.98,1.29,6.56-.61,10.53-6.26,13.75-3.83,2.19-7.78,2.83-12.07,1.91-4.22-.9-7.8-2.57-8.8-7.23-1.07-5,.82-10.16,5.52-12.2,5.54-2.4,7.73-6.26,8.44-11.91.52-4.18.93-4.12,4.6-5.09ZM99.31,182.02c5.11.08,7.34-2.23,7.49-7.74.19-6.86-2.96-10.84-8.57-10.84-8.02,0-11.09,2.49-11.16,9.02-.06,6.16,4.12,9.43,12.23,9.55Z"/>
        <path class="cls-1" d="M116.95,166.86c1.35,5.99.86,7.36-3.06,8.49-1.45-5.76-.9-7.27,3.06-8.49Z"/>
        <path class="cls-1" d="M187.4,178.14c.09-3.72-1.71-7.55,3.3-9.04,1.81,5.51,1.29,7.18-3.3,9.04Z"/>
        <path class="cls-1" d="M75.61,176.5c-1.91-4.87-1.53-6.69,1.73-8.33,2.74,4.25,2.16,7.03-1.73,8.33Z"/>
        <path class="cls-1" d="M32.89,180.95c.36-3.52-1.22-7.4,3.71-8.45,1.27,5.23.37,7.44-3.71,8.45Z"/>
        <path class="cls-1" d="M99.11,39.6c-.52,3.34.72,6.9-3.71,7.9-1.41-5.69-1.24-6.12,3.71-7.9Z"/>
        <path class="cls-1" d="M89.56,40.56q.11,6.38-3.37,7.32c-1.28-5.25-.96-6,3.37-7.32Z"/>
        <path class="cls-1" d="M153.64,177.77c-.29-2.86-1.64-5.91,2.51-7.26,2.09,4.64,1.6,6.12-2.51,7.26Z"/>
        <path class="cls-1" d="M116.11,40.42c1.15,3.25.57,5.37-2.99,6.45-1.06-3.19-.59-5.36,2.99-6.45Z"/>
        <path class="cls-1" d="M104.89,46.73c-.93-3.45-.81-5.98,3.23-6.94.15,2.85,1.15,5.78-3.23,6.94Z"/>
      </g>
    </g>
  </g>
</svg>