<?xml version="1.0" encoding="UTF-8"?>
<svg id="Layer_2" data-name="Layer 2" xmlns="http://www.w3.org/2000/svg" viewBox="0 0 214.4 60.24">
  <defs>
    <style>
      .cls-1 {
        fill: #fff;
      }

      .cls-1, .cls-2 {
        stroke-width: 0px;
      }

      .cls-2 {
        fill: #81858b;
      }
    </style>
  </defs>
  <g id="Layer_1-2" data-name="Layer 1">
    <g>
      <g>
        <path class="cls-1" d="M53.95,27.73c0-7.16.11-13.65-.04-20.14-.08-3.35,2.54-3.43,4.67-4.89.36,1.54.6,2.62.91,3.93,3.85-2,7.56-2.04,10.92.44,1.66-1.12,3.19-2.15,4.91-3.32.51.79.87,1.33,1.31,2.01,2.42-.9,4.88-1.82,7.34-2.73.14.29.28.58.42.87-2.65,1.39-5.31,2.77-8.09,4.23v5.38c2.45-.4,4.7-.76,6.95-1.13.08.17.17.35.25.52-2.16,1.21-4.32,2.42-6.94,3.9.53,1.58.82,3.49,1.77,5,1.14,1.82,2.57,2.4,4.99.94,3.72-2.25,4.99-4.31,3.14-8.73-.83-1.98.17-5.72,1.71-7.46,2.21-2.5,5.85-3.53,9.41-2.78,2.52.53,3.58,3.5,2.3,6.05-.55,1.1-1.45,2.02-2.26,3.1,3.99,1.3,7.33,3.49,7.4,8,.02,1.33-2.21,2.7-4.04,4.75-1.11-5.51-3.18-8.79-8.13-9.39-1.18,3.43,1.91,8.74-4.62,9.65-.32-.76-.66-1.57-1-2.39-9.58,6.14-12.08,5.26-16.28-5.84-4.56,4.93-10.06,8.1-16.99,10.03ZM59.43,8.73v14.86c5.29-1.18,8.67-6.08,7.69-10.71-.69-3.28-3.48-4.8-7.69-4.14ZM92.45,6.77v7.07c3.93-2.68,3.92-5.13,0-7.07Z"/>
        <path class="cls-1" d="M32.16,51.34c-2.66,4.55-6.51,7.7-12.34,7.45-3.92-.17-5.02-1.99-4.93-5.86.1-4.24-.17-8.52-.66-12.74-.42-3.66,1.41-5.04,4.79-5.87.15,2.05.28,3.86.41,5.77,2.22-1.21,4.15-2.72,6.32-3.28,1.56-.41,3.45.44,5.2.73-.47,1.59-.84,3.23-1.45,4.77-.28.69-1.04,1.19-1.8,2,1.39.76,2.59,1.4,4.19,2.27.02-5.87,2.34-9.79,7.29-11.28-.71,2.98-1.46,6.1-2.2,9.21-.05.22,0,.47.01.71.27,4.21,3.52,7.79,6.68,7.36,2.15-.29,3.82-4.16,3.23-7.48-.65-3.65-4.02-5.87-7.73-5.07-.13-.28-.25-.56-.38-.85,2.22-.99,4.36-2.53,6.67-2.81,2.48-.3,5.76,3.21,6.31,5.97.7,3.52-.25,6.8-2.96,9-3.14,2.55-6.55,5.55-11.05,4.05-2.07-.69-3.72-2.63-5.61-4.04ZM23.96,55.65c2.86.22,3.18-2.04,3.53-3.93.35-1.85-2.83-4.47-5.22-4.15-.85.11-2.13,1.44-2.19,2.29-.31,4.04.97,5.73,3.88,5.79ZM19.76,45.79c2.01-.75,3.67-.97,4.74-1.88.89-.75,1.1-2.31,1.62-3.52-1.14-.13-2.33-.51-3.4-.3-1.1.22-2.08,1.02-3.32,1.68.11,1.2.22,2.43.36,4.02Z"/>
        <path class="cls-1" d="M83.79,43.36c2.23,1.67,4.25,3.17,6.55,4.9,0-2.74.2-5.7-.05-8.62-.29-3.35.89-5.46,3.81-6.19,1.39.63,2.46,1.23,3.59,1.61,3.56,1.19,7.09,2.49,8,6.69.93,4.31-.63,7.99-3.86,10.81-3.11,2.71-6.55,4.94-11.1,4.61-.17-1.66-.33-3.15-.51-4.8-1.5.65-2.77,1.2-3.68,1.6-1.73-2.15-3.1-4.34-4.96-5.95-.95-.82-2.79-.61-4.67-.94,1.04,3.94-.06,6.07-4.29,6.6-.28-2.48-.59-4.97-.84-7.46-.27-2.71-.57-5.42-.69-8.13-.14-3.17,2.28-4.58,5.26-3.28.5.22,1.27-.05,1.87-.24.78-.24,1.51-.91,2.26-.9,2.02.04,4.86-.4,5.86.71,1.9,2.11.76,4.9-.89,7.13-.55.74-1.23,1.37-1.66,1.86ZM95.54,54.05c3.87-1.26,5.75-4.53,5.41-8.71-.27-3.29-2.06-5.19-5.41-5.72v14.43ZM77.16,44.66c4.92-1.62,6.03-3.64,4.26-7.79-4.3-.45-5.52,1.78-4.26,7.79Z"/>
        <path class="cls-1" d="M123.03,33.62c-1.46.86-2.74,1.61-4.15,2.43-2.65-2.15-4.73-5.17-8.74-5.01-.52,2.95.68,4.91,3,6.29,1.82,1.09,3.88,1.85,5.53,3.15,1.2.94,2.4,2.4,2.71,3.83.72,3.31-2.59,7.07-7.07,8.58-3.18,1.07-6.29-.39-8.15-3.88.29-.31.54-.74.92-.98.99-.61,2.03-1.13,2.91-1.62,1.78,1.33,3.41,2.55,5.06,3.78,2.19-3.2,1.9-5.01-.85-6.69-1.61-.98-3.35-1.76-4.97-2.73-3.49-2.08-4.95-5.18-3.96-8.24.8-2.49,6.17-5.6,8.97-5.19,3.29.48,6.45,2.62,8.81,6.28Z"/>
        <path class="cls-1" d="M46.43,16.5c-2.19.5-3.63.83-5.23,1.2-.24,3.6,1.14,7.96-4.72,8.65,0-5.56-.27-11.15.12-16.69.18-2.56,6.73-6.48,9.29-5.86,1.15.28,2.67,1.51,2.94,2.58,1.45,5.69,2.82,11.43,3.68,17.23.42,2.86-2.5,3.18-4.77,4.04-.43-3.67-.84-7.13-1.31-11.15ZM42.77,6.69c-.48.14-.97.28-1.45.43-.16,2.37-.33,4.74-.51,7.37,1.83-.11,3.17-.2,5.38-.33-1.33-2.9-2.37-5.18-3.42-7.47Z"/>
        <path class="cls-1" d="M53.29,53.89c.77-5.16,1.34-9.8,2.18-14.39.64-3.48,3.27-5.34,6.34-6.58,2.82-1.14,5.29-.4,5.91,2.55,1.08,5.13,1.63,10.42,1.85,15.66.05,1.17-2.24,2.43-3.45,3.64-.32-.18-.65-.35-.97-.53-.24-2.75-.48-5.5-.75-8.64-1.88.37-3.55.69-5.34,1.04-.02,3.52-.17,6.79-5.77,7.23ZM64.4,42.86c-.85-2.44-1.62-4.65-2.39-6.85-.44.05-.89.11-1.33.16-.63,2.57-1.27,5.14-2.04,8.26,2.24-.61,3.65-1,5.76-1.58Z"/>
        <path class="cls-1" d="M21.36,3.81c.38,1.01.7,1.85,1.02,2.71,3.59-.73,7.01-1.43,11.17-2.28-3.29,4.16-7.84,3.49-11.51,5.12v7.46c3.46-1.15,6.7-2.22,9.94-3.3.14.32.28.63.42.95-3.33,1.56-6.66,3.11-10.34,4.83.37,1.49.6,3.11,1.18,4.61,1.69,4.43,3.3,4.7,6.6,1.5,1.17-1.13,2.71-1.87,4.35-2.4-2.07,4.35-5.78,6.64-10.1,7.9-2.38.69-4.29-.79-5.01-2.98-.95-2.89-1.67-5.91-2.01-8.93-.35-3.04.07-6.17-.19-9.22-.27-3.26.93-5.19,4.48-5.97Z"/>
        <path class="cls-1" d="M16.32,25.92C11.08,27.86,5.83,29.8,0,31.95,0,28,0,24.39,0,20.78c.01-4.14,0-8.27.07-12.41.05-3.24,1.94-4.69,5.37-4.37v22.66c3.33-.63,6.88-1.31,10.43-1.98.15.41.3.82.45,1.23Z"/>
      </g>
      <g>
        <path class="cls-2" d="M141.3,56.77c.11-1.31.25-2.33.26-3.36.25-15.95.45-31.91.75-47.86.04-2.34-.95-3.51-3.33-4.03-.15.53-.43,1.05-.44,1.57-.27,16.55-.49,33.09-.76,49.64-.04,2.16.55,3.7,3.52,4.05Z"/>
        <path class="cls-2" d="M133.1,0c-.14,1.28-.31,2.19-.33,3.11-.27,16.78-.54,33.55-.77,50.33-.04,3.16.04,3.16,3.88,4.69,0-7.02-.07-13.81.02-20.6.15-11.22.37-22.45.64-33.67.05-2.22-1.07-3.2-3.43-3.87Z"/>
        <path class="cls-2" d="M143.99,15.54c0,3.16,0,6.32,0,9.48.03,9.68.07,19.36.09,29.04,0,1.86.07,3.63,2.85,3.8.14-.61.42-1.25.42-1.88-.13-12.51-.26-25.01-.51-37.52-.02-1.13-.86-2.23-1.32-3.35-.51.15-1.02.29-1.53.44Z"/>
        <path class="cls-2" d="M150,21.67c.15,2.2.48,4.4.41,6.59-.25,8.62-.53,17.24-1.03,25.84-.14,2.47.55,3.83,3.37,4.41.29-3.27.71-6.48.84-9.7.32-7.79.68-15.58.62-23.36-.01-1.5-1.86-2.98-2.86-4.46-.45.23-.9.46-1.36.69Z"/>
        <path class="cls-2" d="M158.42,58.18c.12-1.32.28-2.35.29-3.37.14-10.03.33-20.06.27-30.09,0-1.21-1.45-2.41-2.22-3.61-.37.14-.75.27-1.12.41-.09,1.1-.23,2.19-.25,3.29-.17,9.67-.28,19.35-.5,29.02-.05,2.27.41,3.95,3.54,4.36Z"/>
        <path class="cls-2" d="M164.51,58.03c0-2.97-.05-5.66.01-8.34.14-6.02.27-12.05.56-18.07.12-2.55-.72-4.06-3.88-4.57,0,1.69.02,3.26,0,4.84-.09,7.33-.11,14.66-.32,21.99-.06,2.22.4,3.72,3.63,4.15Z"/>
        <path class="cls-2" d="M166.64,26.44c0,9.22.14,18.26-.09,27.29-.07,2.64.86,3.61,3.71,4.12,0-1.72,0-3.2,0-4.68,0-7.44-.04-14.88.02-22.32.02-2.66-1.03-4.15-3.64-4.42Z"/>
        <path class="cls-2" d="M172.75,57.36c.69.28,1.71.7,3.23,1.33.24-1.57.54-2.66.56-3.76.08-5.07.01-10.14.15-15.2.07-2.63-1.16-3.8-3.93-4.3v21.94Z"/>
        <path class="cls-2" d="M182.53,58.51c.3-5.01.8-10.02.76-15.02-.01-1.1-1.96-2.18-2.96-3.21-.67.55-1,.69-1.01.84-.15,5-.39,10-.29,15,.02,1,1.36,1.97,2.1,2.96.47-.19.93-.38,1.4-.58Z"/>
        <path class="cls-2" d="M189.11,59.43c.21-5.31.6-10.25.44-15.17-.04-1.11-2.01-2.15-3.69-3.82,0,4.29.02,7.53-.01,10.77-.01,1.42.02,2.86-.25,4.24-.47,2.43.56,3.53,3.51,3.98Z"/>
        <path class="cls-2" d="M194.78,58.62c.25-4.65.67-9.3.61-13.95-.01-1.01-1.75-2-2.7-2.99-.28.15-.55.29-.83.44-.23,4.86-.57,9.72-.56,14.58,0,.83,1.57,1.65,2.42,2.47.35-.18.7-.36,1.05-.55Z"/>
        <path class="cls-2" d="M197.95,41.21c-.33,1.84-.62,2.62-.58,3.38.22,3.99.38,8,.9,11.96.17,1.26,1.39,2.38,2.13,3.57.36-.17.73-.34,1.09-.5,0-4.82.19-9.66-.14-14.46-.08-1.17-1.86-2.23-3.41-3.95Z"/>
        <path class="cls-2" d="M207.38,60.17c.79-6.04.59-6.62-2.75-8.09-1.74,4.85-1.16,6.72,2.75,8.09Z"/>
        <path class="cls-2" d="M214.36,60.24q.13-5.52-2.72-6.83c-1.6,3.97-1.15,5.19,2.72,6.83Z"/>
      </g>
    </g>
  </g>
</svg>