<?xml version="1.0" encoding="UTF-8"?>
<svg id="Layer_2" data-name="Layer 2" xmlns="http://www.w3.org/2000/svg" viewBox="0 0 133.22 73.06">
  <defs>
    <style>
      .cls-1 {
        fill: #fff;
      }

      .cls-1, .cls-2 {
        stroke-width: 0px;
      }

      .cls-2 {
        fill: #81858b;
      }
    </style>
  </defs>
  <g id="Layer_1-2" data-name="Layer 1">
    <g>
      <path class="cls-2" d="M113.58.4c0,5.1,0,10.2,0,15.3,0,2.75,0,5.49-.02,8.24-.01,1.18.46,1.68,1.68,1.83,4.26.54,8.53,1.08,12.75,1.85,2.1.38,2.66-.31,2.53-2.25-.22-3.32-.48-6.65-.46-9.97.01-2.7.43-5.41.63-8.11.05-.74.01-1.49-.07-2.22-.25-2.38-.26-2.38,2.35-3.42.09.59.25,1.13.24,1.66-.09,7.86-.23,15.72-.3,23.58-.02,2.2-1.4,2.87-3.17,2.82-1.69-.04-3.38-.43-5.06-.72-1.24-.22-1.83.22-1.81,1.5.02.96.2,2-.08,2.88-.32,1.02-1.07,1.9-1.63,2.84-.29-.12-.58-.24-.87-.36,0-1.82-.05-3.65.02-5.47.05-1.52-.44-2.39-2.09-2.48-1.7-.09-3.39-.42-5.09-.46-1.48-.03-2.16-.55-2.15-2.1.04-7.48-.03-14.97.1-22.45.02-.96,1.03-1.91,1.58-2.86.3.13.6.27.91.4Z"/>
      <path class="cls-2" d="M0,29.44c.24-.85.63-1.59.62-2.33-.03-3.26-.25-6.51-.26-9.77,0-1.29.57-2.58.52-3.86-.12-3.03-.42-6.06-.69-9.08C0,2.42.12,2.22,2.5,1.49c1.44,8.56,1.11,17.16.75,26.06,4.19-.6,7.94-1.16,11.7-1.68,1.39-.19,1.88-1,1.78-2.31-.21-2.65-.58-5.3-.55-7.95.04-4.12.24-8.25.64-12.35.09-.87,1.35-1.62,2.42-2.81,0,5.75-.01,10.75,0,15.75,0,2.37.22,4.75.06,7.11-.06.9-.7,2.16-1.44,2.55-1.54.8-3.31,1.19-5.03,1.6-1.63.4-2.71.98-2.31,2.98.31,1.59-.69,2.24-2.13,2.42q-1.28-4.89-6.44-3.83c-.65.13-1.3.28-1.94.41Z"/>
      <path class="cls-2" d="M49.8,12.96c2.37-1.79,4.94-3.87,7.65-5.76,8.33-5.82,16.03-2.65,23.63,1.76.96.56,2.02.94,3.36,1.55-4.45,5.04-9.67,8.6-16.72,9-6.78.38-12.84-1.29-17.91-6.55ZM67.11,17.99c5.68-.18,9.33-.84,12.23-3.73,1.59-1.59,1.64-2.14-.25-3.41-3.93-2.65-8.22-4.39-12.94-5.07-3.7-.53-6.89.35-9.59,2.98-.42.41-.89.79-1.36,1.15-2.3,1.72-2.33,2.46.06,4.23,4.06,3,8.76,3.83,11.84,3.86Z"/>
      <g>
        <path class="cls-1" d="M35.7,50.12c-3.45.88-6.73,1.72-10.24,2.62-.49-3.46-.98-6.82-1.47-10.29-2.38.45-3.33,1.39-2.61,3.46.66,1.9-.18,4.36,2.11,5.65-.37.63-.61,1.64-1.13,1.82-1.77.61-2.56,1.8-3.36,3.46-1.69,3.49-7.78,5.74-11.53,4.61-1.26-.38-1.87-.82-1.86-2.57.02-2.92-.9-5.84-1.29-8.78-.64-4.85-1.27-9.7-1.69-14.56-.21-2.41.2-2.66,3-3.53.08,1.76.16,3.47.25,5.36,1.59-.87,2.87-1.73,4.26-2.3,1.83-.75,3.83-1.19,5.32.61,1.47,1.77.86,3.65-.33,5.33-1.24,1.74-2.59,3.41-3.54,4.65,2.22.11,5.03,1.42,6.57,4.09-.11-3.95-.35-8.14-.29-12.33.03-2.16,1.09-3.88,3.18-4.97,1.6-.83,2.58-.42,3.24,1,.99,2.14,1.83,4.35,2.87,6.85,0-1.9.15-3.54-.03-5.15-.26-2.36.72-3.62,3.04-4.06.35,6.23.7,12.45,1.06,18.7,4.18-.64,4.58-1.26,4.37-4.96-.22-4-.19-8.01-.31-12.01-.06-2.13,1.54-2.37,3.01-2.91.24,6.91.48,13.69.72,20.53,1.64-.12,2.96-.21,4.87-.35-2.25,3.36-5.41,1.38-7.62,3.14-.22-1.21-.37-1.99-.57-3.09ZM7.42,47.82c.43,2.8.83,5.41,1.24,8.03.05.29.09.6.21.86.42.9.76,2.45,1.33,2.54,1.57.25,3.43.31,4.82-.33,1.72-.8,1.79-2.77,1.35-4.54-1.02-4.15-4.24-6.57-8.95-6.57ZM7.02,45.62c2.88-.55,5.83-3.56,6.02-5.92.12-1.51-.44-2.68-1.95-3.04-1.25-.3-2.56-.41-2.5,1.63.01.35-.92.66-1.24,1.1-.42.59-.96,1.3-.95,1.95.03,1.43.39,2.85.61,4.28ZM21.54,35.65c-.19.04-.38.08-.57.12v6.21c.21.13.43.25.64.38.54-.75,1.61-1.58,1.51-2.23-.23-1.54-1.02-2.99-1.58-4.48Z"/>
        <path class="cls-1" d="M61.82,41.17c-2.82,7.1-4.58,8.58-8.16,7.51-1.39,1.11-2.6,2.06-4.25,3.37-.25-2.05-.43-3.48-.63-5.13-1.17.62-2.23,1.19-3.29,1.75-1.33.7-2.43.34-3.35-.76-3.17-3.8-1.13-15.08,3.16-17.49,2.59-1.46,3.95-1.04,5.58,1.78-1.73,2.51-3.33,1.43-4.78-.34-3.07,3.52-3.02,12.44.23,15.05.88-1.45,1.73-2.86,2.58-4.27-.15-.14-.3-.27-.45-.41-.36.15-.72.31-1.09.46-.38.15-.77.28-1.15.42l-.31-.52c1.59-1.06,3.18-2.12,4.76-3.19.46-.31,1.11-.57,1.32-1.02,2.2-4.65,6.16-5.05,9.46-.76.05-1.71-.7-3.63,1.59-4.36.28-.09.71-.41.79-.33,1.8,1.73,2.93-.29,4.26-.8,2.43-.93,3.81-.26,4.32,2.3.57,2.86-1.29,4.53-2.71,5.93,1.57,1.62,3.38,2.97,4.49,4.76,1.56,2.51,1.07,3.2-2.11,4.27-.95-3.31-2.45-6.18-6.98-6.35.18,1.75.35,3.34.55,5.2-.19.13-.67.45-1.16.77-1.48.96-2.24.35-2.36-1.21-.16-2.11-.2-4.22-.31-6.61ZM56.93,46.5c1.48-2.12,1.94-5.51.94-7.5-.24-.48-.78-1.2-1.11-1.16-.57.06-1.28.51-1.58,1.01-1.04,1.72.08,6.28,1.75,7.66ZM65.49,41.42c3.21-1.1,4.7-3.94,3.47-6.41-.54-1.08-1.38-1.88-2.23-.35-1.12,2.01-1.91,4.17-1.24,6.77ZM52.42,47.02c-.01.09-.02.18-.03.27.03-.04.08-.08.09-.12,0-.05-.04-.1-.06-.15Z"/>
        <path class="cls-1" d="M91.65,41.92c2.23.65,2.11-.83,1.95-2.08-.28-2.32.17-4.1,3.41-4.72v7.28c2.19-2.66-.33-7.45,4.87-8.75.96,2.84,1.9,5.65,2.88,8.56,2.17-3.24.64-8.48,5.96-10.12.72,3.36,1.41,6.52,2.08,9.68.51,2.39.98,4.79,1.52,7.18.64,2.77.59,2.89-2.6,3.87-.94-4.24-1.88-8.45-2.82-12.67-.14-.01-.28-.02-.42-.03-.6,2.01-1.36,3.98-1.77,6.03-.41,2.06-1.59,3.05-3.69,3.51-.62-2.2-1.22-4.37-1.83-6.54-.1.02-.21.04-.31.05,0,1.68-.19,3.38.05,5.02.27,1.82-.83,2.45-2.09,2.88-1.24.42-2.58.53-4.36.87-.24-1.94-.39-3.96-.77-5.95-.13-.66-.84-1.2-1.29-1.79-.29.63-.75,1.24-.84,1.9-.11.79-.11,1.7.18,2.41.78,1.87-.67,2.32-1.75,2.6-1.68.44-1.45-1.11-1.51-2.03-.23-3.25-.56-6.52-.42-9.77.04-.97,1.48-1.88,2.28-2.82l.84.39c.14,1.64.28,3.29.44,5.05ZM97.54,44.61c-.19.01-.38.02-.57.03.09,1.18.17,2.37.26,3.55.1,0,.21-.01.31-.02v-3.56Z"/>
        <path class="cls-1" d="M85.46,35.11c.24,4.26.36,7.96.68,11.64.18,2.14-.97,2.83-2.99,3.28-.33-4.61-.65-9.06-.97-13.64-1.26.44-2.23.7-3.14,1.12-.39.18-.91.68-.9,1.02.07,3.21.25,6.41.42,10-.57.29-1.63.84-3.07,1.58-.2-2.36-.43-4.31-.51-6.27-.11-2.81,0-5.64-.21-8.44-.18-2.34.92-3.36,3.11-3.82.23,1.19.45,2.32.73,3.79,1.69-.71,3.18-1.42,4.73-1.96.61-.21,1.35-.04,2.03-.03.48,0,.98.14,1.45.06,1.09-.18,2.15-.53,3.24-.66.72-.09,1.47.08,2.2.13-.04.35.05.9-.13,1.01-.79.46-1.62,1.01-2.49,1.13-1.3.19-2.66.05-4.17.05Z"/>
        <path class="cls-1" d="M118.36,42.43c1.18,1.71,2.25,3.52,3.57,5.12,2.77,3.35,2.46,5.52-1.22,7.7-1.31.78-2.66,1.24-3.86.11-.61-.57-1.31-1.85-1.06-2.39.51-1.11,1.63-1.95,2.57-2.98.56,1.6.94,2.67,1.47,4.19,1.42-2.24.1-3.26-.66-4.44-1.23-1.91-2.75-3.71-3.58-5.78-1.11-2.77,1.41-5.48,4.4-4.85,2.95.62,5.11,2.44,6.62,5.03-2.26,2.13-2.32,2.08-4.26.12-.95-.97-2.12-1.72-3.19-2.57l-.8.74Z"/>
      </g>
      <path class="cls-2" d="M65.6,60.54c-.43-2.44.35-2.98,2.69-2.4.99.24,2.19-.4,3.32-.65-.53.5-1.13,1.07-1.86,1.76.4.48.8.94.97,1.14-1.14,1.41-2.23,2.76-3.46,4.27.73.52,1.6,1.15,2.46,1.76-2.95,4.33-7.36,3.53-11.53,3.54,2.4-2.44,5.76-.77,8.99-2.32-1.65-.69-2.95-1.24-4.4-1.85-.07-.33-.29-1.25-.54-2.37.81-.59,1.64-1.28,3.1-.32.67.44,1.94-.05,2.94-.12.06-.3.13-.61.19-.91-.97-.52-1.93-1.05-2.9-1.57,0,0,.03.03.03.03Z"/>
      <path class="cls-2" d="M28.24,70.67c-.44-.32-2-.86-2.21-1.72-.27-1.13.13-3.1.96-3.66,1.7-1.16,3.82-1.91,5.86-2.31,1.91-.37,2.95,1.21,2.44,3.15-.58,2.18-3.86,4.55-7.05,4.54ZM30.78,63.58c-1.22,1.35-2.35,2.04-2.5,2.91-.28,1.6.98,2.33,2.48,2.47,1.58.14,2.31-.92,2.12-2.18-.14-.92-1.08-1.72-2.1-3.2Z"/>
      <path class="cls-2" d="M36.66,62.09c-1.63-.98-2.9-1.75-4.18-2.52.95-1.1,1.69-2.65,2.89-3.19,1.65-.75,3.66-1.06,5.49-.96,2.01.12,2.61,1.9,1.11,3.29-1.43,1.32-3.31,2.15-5.3,3.38ZM37.2,56.3c-.94.73-1.56,1.2-2.18,1.67,1.07.55,2.09,1.31,3.22,1.56.51.12,1.25-.76,1.89-1.18-.91-.64-1.83-1.28-2.93-2.06Z"/>
      <path class="cls-2" d="M60.34,58.61c-1.25-.4-2.12-.51-2.76-.94-.61-.41-1.36-1.16-1.37-1.76,0-.61.71-1.55,1.32-1.78,2.14-.8,4.18-2.39,6.71-1.22,1.99.92,2.22,2.15.43,3.35-1.43.96-3.03,1.66-4.32,2.35ZM58.88,54.52c-.09.27-.19.54-.28.81,1.35.45,2.7.91,4.07,1.3.07.02.34-.64.51-.99-1.31-.45-2.62-.9-3.94-1.33-.09-.03-.24.14-.36.22Z"/>
      <path class="cls-2" d="M39.32,15.12c1.55-.46,3.08-.99,4.65-1.35,1.16-.27,2.37-.31,3.69.03-6.44,1.38-12.51,3.52-18.23,7.69,2.88-4.4,12.31-9.68,17.92-10.07-2.7,1.21-5.39,2.42-8.09,3.63-1.17.61-2.34,1.21-3.52,1.82-.03.04-.06.07-.08.11.02-.05.03-.09.05-.14,1.2-.57,2.41-1.14,3.61-1.71Z"/>
      <path class="cls-2" d="M114.57,62.03c.99.62,2.01,1.27,3.02,1.92-.68,1.03-1.15,2.33-2.08,3.02-.91.69-2.3,1.07-3.45,1.01-.77-.04-1.98-.99-2.11-1.7-.16-.83.38-2.12,1.05-2.72.8-.72,2.07-.92,3.57-1.52ZM112.84,64.05c-.21.36-.43.71-.64,1.07.69.43,1.36.89,2.09,1.25.05.02.46-.7.71-1.07-.72-.42-1.44-.83-2.16-1.25Z"/>
      <path class="cls-2" d="M53.56,67.73c.03,2.74-1.78,3.27-3.18,3.78-.91.34-2.17-.26-3.26-.44-.06,0-.14-.1-.15-.16-.05-.82-.38-1.76-.08-2.43.69-1.53,3.56-2.62,5.21-2.02.68.25,1.18,1.01,1.46,1.27Z"/>
      <path class="cls-2" d="M17.29,67.06c-1.02-.82-2.21-1.31-2.42-2.07-.2-.72.4-1.96,1.03-2.56,1.28-1.22,4.69-1.23,6.01-.1.38.33.59,1.6.39,1.73-1.55,1.06-3.21,1.95-5.02,2.99Z"/>
      <path class="cls-2" d="M119.26,70.33c0-3.22-.12-6.44.09-9.64.05-.71,1.24-1.35,1.9-2.02.21.1.42.19.64.29,0,3.33.08,6.67-.08,10-.03.6-1.06,1.15-1.63,1.73-.31-.12-.61-.23-.92-.35Z"/>
      <path class="cls-2" d="M98.36,70.85c-.79-.87-1.6-1.38-1.8-2.06-.58-2.01.89-3.07,2.27-4.1,1.28-.95,2.63-.8,3.55.32.51.63.83,2.23.45,2.62-1.18,1.2-2.74,2.03-4.47,3.22ZM99.96,66.42c-.31.12-.62.24-.92.36.25.54.47,1.09.77,1.6.03.06.49-.13.75-.21-.2-.58-.4-1.17-.59-1.75Z"/>
      <path class="cls-2" d="M78.38,58.61c-1.26.03-2.06-1.43-1.38-2.85.65-1.37,2.77-2.23,4.23-1.6,1.07.46,2.04,1.13,3.06,1.71-1.11.77-2.18,1.63-3.37,2.26-.68.36-1.57.32-2.55.49Z"/>
      <path class="cls-2" d="M77.58,60.5c-.03.36-.07.72-.12,1.35.8-.3,1.46-.75,2.1-.73.8.03,1.97.25,2.25.77.27.52-.2,1.65-.67,2.27-.46.61-1.27,1.05-2.02,1.32-1.34.47-2.91,1.34-4.02-.25-.97-1.39-.09-3.43,1.67-4.41.25-.14.55-.2.83-.3l-.03-.03ZM78.48,62.47c-.45.39-.74.65-1.03.9.32.34.61.89.97.94.33.05.74-.44,1.12-.69-.31-.34-.63-.68-1.06-1.15Z"/>
      <path class="cls-2" d="M53.83,64.98c-1.21-.87-2.07-1.49-2.93-2.11.54-.7,1.06-1.4,1.62-2.08.13-.16.37-.3.57-.32,1.39-.13,2.79-.28,4.18-.27.17,0,.63,1.25.46,1.42-1.17,1.14-2.46,2.15-3.9,3.36Z"/>
      <path class="cls-2" d="M46.32,62.62c-.34.23-1.18.78-2.09,1.39.3.66.57,1.23.83,1.8-1.24,1.14-2.32,1.76-3.5,0-.22-.33-1.17-.33-1.74-.24-.76.12-1.49.48-2.49.82,1.25-1.48,2.27-2.78,3.39-3.99.3-.33.94-.56,1.38-.51,1.51.18,3.01.5,4.22.72Z"/>
      <path class="cls-2" d="M75.5,73.06c-.89-.77-1.8-1.25-2.14-1.98-.18-.39.49-1.59,1.03-1.81,1.28-.54,2.72-.98,4.09-.95,1.12.02,1.68,1.2.78,2.1-1,1-2.33,1.67-3.77,2.64Z"/>
      <path class="cls-2" d="M99.74,58.97c.57.08,1.44-.04,1.79.33.38.4.54,1.71.34,1.83-1.18.69-2.46,1.37-3.77,1.58-.71.11-1.57-.72-2.36-1.13.52-.72.91-1.63,1.6-2.11.59-.41,1.52-.34,2.41-.5Z"/>
      <path class="cls-2" d="M90.48,62.72c.45.8.9,1.6,1.49,2.65-1.26,2.55-3.84-.5-5.6.64-.22-.82-.43-1.65-.68-2.58.92-.6,1.69-1.85,3.13-.53.28.26,1.11-.08,1.68-.14l-.03-.04Z"/>
      <path class="cls-2" d="M94.77,57.27c-2.57,2.85-5.31.53-8,.32,2.53-2.69,5.32-.16,8-.32Z"/>
      <path class="cls-2" d="M12.36,63.68c.09,2.07.98,4.22-1.9,4.96-1.2-3.39-.99-4.03,1.9-4.96Z"/>
      <path class="cls-2" d="M42.82,68.08c-1.69,2.19-3.73,1.27-6.07.67,2.03-2.43,4.13-.89,6.1-.64l-.03-.03Z"/>
      <path class="cls-2" d="M108.94,63.54c-1.49.18-2.97.36-4.46.54-.06-.37-.12-.74-.18-1.11,1.47-.28,2.95-.56,4.42-.84.08.47.15.94.23,1.4Z"/>
      <path class="cls-2" d="M73.02,55.62c-1.5.36-2.99.72-4.49,1.08-.09-.33-.17-.66-.26-.98,1.48-.39,2.97-.79,4.45-1.18.1.36.2.72.3,1.08Z"/>
      <path class="cls-2" d="M45.14,57.91c1.96-.72,3.92-1.44,5.88-2.16l.26.68c-1.96.77-3.93,1.55-5.89,2.32l-.24-.83Z"/>
      <path class="cls-2" d="M85.34,69.76c2.23-.91,4.46-1.83,6.69-2.74.09.22.19.44.28.66-2.23.92-4.45,1.83-6.68,2.75-.1-.22-.19-.45-.29-.67Z"/>
      <path class="cls-2" d="M29.45,60.93c-1.31.82-2.61,1.65-3.92,2.47-.16-.33-.31-.65-.47-.98,1.47-.49,2.94-.98,4.42-1.47,0,0-.03-.03-.03-.03Z"/>
      <path class="cls-2" d="M90.51,62.75c.23-.2.45-.41.68-.61l.18.32c-.29.09-.59.17-.88.26,0,0,.03.04.03.04Z"/>
      <path class="cls-2" d="M29.47,60.96c.1-.06.2-.12.17-.11.03,0-.09.03-.2.07,0,0,.03.03.03.03Z"/>
      <path class="cls-2" d="M65.58,60.51c-.3.15-.59.3-.89.45,0,0,.03.03.03.03.3-.15.59-.3.89-.44,0,0-.03-.03-.03-.03Z"/>
      <path class="cls-2" d="M63.81,61.41c.3-.14.6-.28.91-.42,0,0-.03-.03-.03-.03-.3.14-.61.28-.91.43,0,0,.03.03.03.03Z"/>
      <path class="cls-2" d="M77.6,60.53s-.03-.03-.03-.03c0,0,.03.03.03.03Z"/>
      <path class="cls-2" d="M42.86,68.11s-.03-.03-.03-.03c0,0,.03.03.03.03Z"/>
      <polygon class="cls-2" points="63.78 61.38 63.72 61.48 63.81 61.41 63.78 61.38"/>
      <path class="cls-2" d="M65.54,12.15c1.5-1.22,2.99-2.44,4.49-3.66.16.2.33.4.49.59-1.5,1.22-2.99,2.44-4.49,3.66-.16-.2-.33-.39-.49-.59Z"/>
      <path class="cls-2" d="M62.39,11.64c1.38-1.06,2.77-2.12,4.15-3.19.13.16.25.32.38.49-1.37,1.07-2.75,2.15-4.12,3.22-.13-.17-.27-.35-.4-.52Z"/>
      <path class="cls-2" d="M60.25,11.07c1-1.07,2-2.14,3-3.21.22.26.45.52.67.79-1.23.8-2.47,1.6-3.7,2.39,0,0,.03.03.03.03Z"/>
      <polygon class="cls-2" points="60.21 11.04 60.15 11.13 60.25 11.07 60.21 11.04"/>
    </g>
  </g>
</svg>