<?xml version="1.0" encoding="UTF-8"?>
<svg id="Layer_2" data-name="Layer 2" xmlns="http://www.w3.org/2000/svg" viewBox="0 0 161.92 53.87">
  <defs>
    <style>
      .cls-1 {
        fill: #fff;
      }

      .cls-1, .cls-2 {
        stroke-width: 0px;
      }

      .cls-2 {
        fill: #81858b;
      }
    </style>
  </defs>
  <g id="Layer_1-2" data-name="Layer 1">
    <g>
      <path class="cls-2" d="M132.83,37.55c-.26-.55-.47-1.12-.78-1.64q-2.83-4.64-8.32-4.1c1.26-.97,2.25-1.73,3.38-2.59-5.09-7.49-10.11-14.87-15.32-22.54-2.98,3.24,1.01,8.42-4.66,9.84-.17-2.79-.33-5.41-.49-8.03l-.83-.33c-3.11,3.3-6.21,6.61-9.32,9.91-.28-.25-.56-.49-.84-.74,2.19-4.09,7.47-6.38,7.42-12.48-9.21,1.31-18.14,2.59-27.07,3.86-.06-.17-.13-.33-.19-.5,1.03-.52,2.02-1.33,3.11-1.51,7.08-1.14,14.2-2.05,21.28-3.25,2.12-.36,4.1-1.46,6.19-2.09,1.98-.6,4.03-1.4,6.02-1.35.93.03,1.94,1.8,2.64,2.94.47.77.2,2.01.69,2.75,3.06,4.65,6.23,9.23,9.39,13.81,1.21,1.75,2.4,3.53,3.76,5.16,1.06,1.26,2.59,3.42,3.53,3.24,2.67-.52,5.17-1.99,7.66-3.23.45-.22.87-1.22.75-1.73-.62-2.73-5.75-5.8-8.57-5.78-1.34.01-3.29-.75-3.89-1.79-1-1.72-.22-3.55,1.82-4.44,1.3-.57,2.58-1.3,3.94-1.57,1.94-.38,4.03.04,4.04,2.41.01,2.23,1.01,3.5,2.46,4.87,1.54,1.46,2.82,3.19,4.25,4.77.47.52.98,1.28,1.56,1.37,2.5.39,3.63,1.63,4.93,3.99,1.67,3.05,4.88,5.33,7.66,7.67,1.88,1.58,4,2.86,2.25,5.64-1.72,2.72-6.62,3.77-9.01,2.11-2.82-1.96-5.57-1.26-7.58,1.57-.96,1.34-2.32,2.52-3.74,3.38-3.33,2.03-5.43.82-5.65-3.07-.04-.7-.08-1.4-.07-1.27-3.77-1.93-7.08-3.63-10.65-5.46,1.81-2.2,3.34-2.58,5.31-1.23.89.61,1.99.92,2.99,1.37,0,0-.04.04-.04.04ZM137.11,39.95c.79-.52,2.13-.91,2.29-1.57.6-2.55,1-5.17,1.12-7.79.09-2.03-1.82-3.22-3.8-2.61-1.22.38-2.37.96-3.91,1.59,1.04,1.67,1.82,3.17,2.83,4.5,1.37,1.79,2.45,3.57,1.52,5.91l-.1.06.06-.1ZM154.66,36.08c-1.81-2.08-2.96-3.81-4.51-5.02-1-.78-2.58-1.02-3.92-1.09-2.09-.11-2.69,1.46-2.81,3.22-.11,1.71-.25,3.43-.12,5.13.15,2,1.24,3.39,3.37,2.38,2.59-1.23,4.99-2.85,7.99-4.61ZM111.13,3.7c-.03-.39-.06-.79-.09-1.18-1.07-.13-2.21-.52-3.16-.25-.36.1-.29,1.74-.49,3.25,1.72-.84,2.73-1.33,3.74-1.82ZM133.48,15.69c.62-1.03,1.29-1.75,1.15-1.99-.45-.75-1.2-1.33-1.84-1.97-.4.43-1.21,1.02-1.11,1.26.31.8.95,1.48,1.8,2.69ZM158.74,39.3c-1.05-.72-1.74-1.37-2.56-1.66-.27-.1-.88.74-1.33,1.15.79.6,1.55,1.26,2.4,1.74.16.09.74-.59,1.49-1.23ZM139.83,45.54c.54-.19,1.07-.38,1.61-.57-.48-1.18-.96-2.35-1.44-3.53-.43.16-.86.32-1.29.47.37,1.21.75,2.42,1.12,3.63ZM146.87,27.8c.07-.39.14-.78.21-1.17-1.19-.09-2.38-.18-3.57-.27-.04.2-.09.39-.13.59,1.16.28,2.33.56,3.49.84Z"/>
      <path class="cls-2" d="M30.55,41.17c3.28,1.21,6.63,2.28,9.82,3.69,1.3.58,2.86,1.71,3.25,2.93.62,1.91-.3,3.81-2.36,4.68-1.45.61-2.98,1.31-4.5,1.39-.94.05-2.5-.79-2.77-1.58-.27-.79.62-2.06,1.17-3.03.32-.57.97-.95,1.47-1.42.21.58.38,1.18.65,1.73.33.66.64,1.39,1.18,1.85.21.18,1.39-.24,1.43-.5.14-.82.25-2.18-.18-2.46-.81-.51-2.01-.41-3.05-.57-3.64-1.42-7.3-2.79-10.92-4.26-3.29-1.33-3.99-.96-3.67,2.46.32,3.48-2.33,4.46-4.59,5.68-2.28,1.24-4.73,1.32-6.91-.28-1.62-1.19-1.44-4.21.34-5.99.84-.84,1.96-1.41,2.96-2.1,1.1-.77,3.04-1.34,1.57-3.11-1.1-1.32-2.63-1.6-4.28-.26-1.39,1.13-3.04,2.01-4.7,2.72-3.37,1.45-5.5.92-6.17-1.32-.97-3.26.54-6.8,3.65-7.19,5.1-.65,6.7-4.73,8.96-8.2.75-1.15.72-2.31-.57-3.72-.96-1.05-1.32-3.82-.59-5.01,1.76-2.91,4.65-4.77,8.31-4.79,4.58-.04,6.59,3.32,4.43,7.33-.24.44-.51.86-.95,1.59.87.69,1.69,1.38,2.54,2.02.87.65,1.77,1.27,2.75,1.97-3.97,3.97-6.14-.93-9.27-1.6v10.37c3.26-.73,6.07-1.35,8.88-1.98.09.27.19.54.28.81-1.87.64-3.75,1.24-5.6,1.95-1.15.44-2.27,1.01-3.31,1.67-.08.05.47,1.78.9,1.86,1.56.3,3.28.6,4.75.2,1.37-.36,2.5-1.61,4.1-2.08-.96,1.11-1.93,2.23-3.4,3.93,1.85.27,3.15.47,4.45.66,0,0-.05-.05-.05-.05ZM21.92,19.49c.01-2.86-1.99-5.09-4.13-4.62-1.24.27-2.64,1.88-3.09,3.19-.56,1.62,2.67,3.88,5.23,3.49.9-.14,1.6-1.62,1.99-2.06ZM15.7,27.64l-1.02-.28c-.99,1.35-2.4,2.57-2.83,4.08-.33,1.15.43,2.73,1.03,3.96.23.48,1.93.82,1.98.72.52-.99,1.08-2.08,1.14-3.17.09-1.76-.18-3.53-.3-5.3ZM9.67,39.11c.01-.46.02-.92.03-1.38-1.13-.86-2.25-2.35-3.39-2.36-.88,0-2.26,1.72-2.56,2.89-.45,1.8.62,3.32,2.69,2.92,1.17-.23,2.16-1.35,3.23-2.07ZM15.78,51.29c1.37-1.17,2.39-1.62,2.61-2.31.51-1.65-1.45-4.32-3.04-4.06-.86.14-2.31,1.57-2.17,2.03.4,1.37,1.46,2.55,2.6,4.34ZM20.72,42.51c.04-.08.08-.16.13-.24-.08-.04-.15-.08-.23-.12-.04.08-.11.17-.11.24,0,.04.14.08.21.12Z"/>
      <g>
        <path class="cls-1" d="M30.6,41.22c.59-7.25,1-14.53,1.93-21.74.18-1.42,2.41-2.57,3.69-3.84.84.99,1.96,1.86,2.46,3.01,1.74,3.97,3.27,8.03,5.47,12.07.56-3.93,1.28-7.85,1.62-11.79.26-3.01,1.76-4.52,5.09-5.18,2.2,8.45,4.46,16.83,6.55,25.26.66,2.67-1.67,2.97-3.69,3.8-1.45-5.58-2.86-11.02-4.27-16.45-.19,0-.38,0-.57.01-.52,3.84-1.03,7.68-1.57,11.51-.48,3.41-.61,3.54-4.5,4.72-2.15-5.64-4.31-11.32-6.47-17-.2.04-.4.08-.6.13-.24,3.29-.78,6.6-.64,9.87.15,3.47-1.45,5.01-4.55,5.58,0,0,.05.05.05.05Z"/>
        <path class="cls-1" d="M57.17,30.26c-.01-4.19,1.76-6.16,4.95-6.49,3.42-.36,7-1.78,9.56,1.53,1.28,1.65,2.23,3.9,2.44,5.96.42,4.36-4.77,9.42-9.15,9.41-3.88,0-7.78-5.22-7.8-10.41ZM70.02,34.2c-.3-3.65-1.23-6.13-3.96-7.56-2.42-1.27-4.96.1-4.42,2.69.49,2.32,1.82,4.57,3.22,6.53.68.96,2.96,1.97,3.5,1.57,1.03-.76,1.33-2.5,1.65-3.23Z"/>
        <path class="cls-1" d="M77.01,41.29c-.51-6.12-1-11.75-1.43-17.39-.12-1.53,2.39-3.7,3.86-3.42,2,.38,4.01.74,5.97,1.25,4.86,1.27,6.79,5.83,3.91,9.92-3,4.26-7.17,7.25-12.32,9.63ZM80.31,24.34c.26,4.18.5,8.12.76,12.24,3.82-1.92,5.53-4.69,5-7.79-.51-3.02-2.7-3.96-5.77-4.46Z"/>
        <path class="cls-1" d="M95.18,19.62c.45,1.32.67,1.94.91,2.66,3.57-.79,7.16-1.59,11.43-2.53-.65,2.68-2.31,3.28-4.13,3.6-1.16.2-2.37.1-3.53.31-4.57.79-4.92,1.44-3.46,6.5,2.82-1.07,5.64-2.14,8.45-3.2l.38.91c-2.75,1.35-5.5,2.69-8.43,4.12.64,2.23,1.77,4.16,4.49,3.59,1.93-.4,3.71-1.54,5.7-2.05-2.78,2.8-5.96,5.23-9.98,5.02-1.54-.08-3.89-2.11-4.25-3.63-.91-3.86-1.15-7.94-1.1-11.93.01-1.03,2.06-2.04,3.51-3.36Z"/>
        <path class="cls-1" d="M113.53,19.56v16.57c2.79-.33,5.35-.64,8.72-1.04-1.03.86-1.49,1.39-2.06,1.7-.97.54-1.96,1.12-3.02,1.38-7.98,1.93-8.22,1.73-8.19-6.5,0-2.43.18-4.86.11-7.29-.09-2.85,1.34-4.23,4.44-4.81Z"/>
      </g>
      <path class="cls-2" d="M68.44,21.31c-.51-1.41-1.12-2.69-1.44-4.05-.43-1.83-.93-3.35-2.95-4.17-1.62-.65-2.03-1.98-.3-3.2,1.79-1.26,3.48-2.83,5.47-3.54,1.03-.37,2.78.62,3.87,1.43.28.21-.37,2.59-1.16,3.13-2.55,1.72-1.91,3.84-1.01,5.87,1.07,2.44.55,3.84-2.47,4.53ZM68.27,12.03c.77-.89,1.16-1.35,1.54-1.8-.79-.62-1.53-1.33-2.39-1.81-.19-.11-.82.56-1.25.88.6.79,1.21,1.57,2.1,2.73Z"/>
      <path class="cls-2" d="M109.4,44.94c.35.43,1.67,1.33,1.86,2.42.38,2.19-3.58,5.27-6.39,5.34-2.17.05-3.13-1.22-3.26-3.16-.14-1.92,3.84-4.6,7.8-4.6ZM108.24,48.64c-.79-.51-1.35-.96-1.98-1.2-.12-.04-.9.99-.79,1.21.32.61.95,1.05,1.47,1.56.35-.41.69-.83,1.31-1.56Z"/>
    </g>
  </g>
</svg>