<?xml version="1.0" encoding="UTF-8"?>
<svg id="Layer_2" data-name="Layer 2" xmlns="http://www.w3.org/2000/svg" viewBox="0 0 256.97 152.16">
  <defs>
    <style>
      .cls-1 {
        fill: #203749;
      }

      .cls-1, .cls-2 {
        stroke-width: 0px;
      }

      .cls-2 {
        fill: #fff;
      }
    </style>
  </defs>
  <g id="Layer_1-2" data-name="Layer 1">
    <g>
      <g>
        <path class="cls-2" d="M86.62,62.79c-.45-6.91-.62-13.85-1.42-20.72-.66-5.69-.79-5.98,5.44-8.25.49,6.58,1.03,13.01,1.43,19.44.36,5.82.36,11.67.94,17.46.44,4.36-1.02,6.92-5.83,7.84-4.8-8.04-9.69-16.23-15.21-25.48.4,7.33.83,13.54,1.04,19.76.15,4.42-.61,5.14-5.32,6.05-.72-8.67-1.41-17.34-2.16-26.01-.24-2.76-.36-5.59-1.07-8.25-.89-3.34,1.02-4.95,3.47-5.42,1.27-.25,3.48,1.18,4.33,2.47,3.83,5.78,7.34,11.77,10.95,17.69.77,1.25,1.5,2.52,2.25,3.79.39-.13.77-.25,1.16-.38Z"/>
        <path class="cls-2" d="M100.35,39.25c.31,1.33.55,2.36.76,3.3,4.86-1.04,9.51-2.04,14.48-3.11-.02,3.88-2.62,4.38-4.92,4.8-2.4.44-4.93.18-7.3.69-1,.22-2.37,1.56-2.48,2.52-.33,2.84-.12,5.75-.12,9.82,5.9-2.1,11.03-3.84,16.05-5.85.58-.23.73-1.95.8-2.99.31-4.38.6-4.76,5.34-6.04.3,5.26.43,10.49.97,15.69.25,2.44,1.03,4.91,2.09,7.12.44.93,2.18,1.47,3.4,1.66.38.06,1.47-1.6,1.49-2.49.09-5.11.3-10.25-.19-15.32-.55-5.69-.34-6.51,5.71-8.61.95,8.23,1.62,16.31-.44,24.32-.92,3.56-6.45,6.33-10.84,6.21-4.57-.13-5.71-3.3-6.36-6.89-.6-3.25-1.01-6.54-1.55-10.07-4.84,1.72-9.7,3.42-14.52,5.22-.53.2-1.29,1.15-1.17,1.48,1.14,3.16,1.87,6.72,3.87,9.26,1.89,2.41,5.04,2.19,7.87.21.84-.59,2.51,0,3.8.04-.64,1.03-1.05,2.42-1.97,3.02-9.19,5.92-18.16,1.95-19.37-8.84-.74-6.6-.63-13.3-.69-19.96-.03-3.13.5-3.45,5.28-5.18Z"/>
        <path class="cls-2" d="M76.52,82.04c0,6.03.02,11.95,0,17.86-.01,4.31-.35,8.63-.04,12.91.32,4.47-1.67,6.63-6.07,7.5-1.58-3.11-3.12-6.19-4.7-9.26-1.57-3.06-3.17-6.12-5.73-9.06,0,2.77-.21,5.57.05,8.32.36,3.77-1.31,5.67-5.42,6.43-.09-1.57-.19-2.99-.24-4.42-.21-6.8-.32-13.6-.64-20.39-.24-5.01-.36-5,5.02-7.38,3.67,6.64,7.37,13.33,11.08,20.01.31-.07.62-.14.93-.22,0-5.21.07-10.41-.02-15.62-.08-4.7.19-5.13,5.79-6.68Z"/>
        <path class="cls-2" d="M164.27,71.25c-.99.3-1.98.59-3.32.99-1.02-8.21-4.99-12.98-14.22-11.35-1.13,3.42.49,8.74-6.18,8.88,0-2.53.02-5.08,0-7.62-.04-5.27.12-10.56-.21-15.82-.27-4.23,1.77-6.03,5.77-6.89.25,1.58.47,2.99.71,4.53,4.5-1.1,9.27-6.79,13.31-.77,3.5,5.2-.6,9.33-4.96,13.28,5.05.84,8.87,2.87,10.2,7.61.53,1.9,1,4.2.43,5.97-1.18,3.65-.01,5.97,2.91,7.9.43.28.7.81,1.12,1.32-2.14,2.22-3.93,2.66-6.38.37-1.08-1.01-3.18-.92-5.43-1.49,2.12-1.93,4.44-4.04,6.76-6.15-.17-.25-.34-.5-.51-.75ZM145.69,58.31c2.49-.71,3.7-.95,4.83-1.4,3.02-1.21,5.62-5.34,4.78-8.33-.41-1.46-1.84-3.19-3.2-3.64-.95-.32-3.34,1.02-3.72,2.1-1.19,3.4-1.74,7.03-2.69,11.27Z"/>
        <path class="cls-2" d="M141.23,79.99c-1.49,6.3-2.84,12.03-4.21,17.75-.74,3.1-1.53,6.19-2.27,9.29-1.02,4.26-1.76,4.99-6.83,6.39-.79-2.59-1.59-5.19-2.26-7.35-2.16,2.34-4.39,4.76-6.62,7.17-.44-.21-.89-.42-1.33-.62-1.54-7.52-3.36-15.01-4.38-22.6-.19-1.44,2.77-3.3,4.86-5.62,1.1,5.16,1.9,8.97,2.62,12.35,2.25-2.25,4.4-4.4,7.26-7.26,1.15,4.26,1.94,7.15,3,11.09,1.34-5.41,2.83-9.77,3.41-14.24.51-3.98,2.9-5.16,6.74-6.35Z"/>
        <path class="cls-2" d="M209.16,109.21c-.67-7.36-1.26-14.76-9.05-19.23,0,3.53-.28,6.68.06,9.76.57,5.04-.46,6.67-5.81,7.91-1.74-6.89,1.74-14.55-2.25-21.42.37-1.5,1.45-3.62,1.26-5.63-.38-4.12,1.72-5.73,5.44-6.74.27,2.7.53,5.21.79,7.78,4.02-2.97,7.73-5.72,11.44-8.46.29.4.58.79.87,1.19-3.35,3.05-6.7,6.09-10.23,9.31.83.57,1.54,1.24,2.37,1.61,8.56,3.86,10.1,11.71,10.68,19.73.11,1.55-2.8,3.31-4.32,4.97-.42-.26-.83-.53-1.25-.79Z"/>
        <path class="cls-2" d="M168.98,70.45c0-9.78.06-19.49,3.77-28.53,1.08-2.63,4.67-4.38,7.4-6.07.69-.43,3,.57,3.66,1.53,1.21,1.77,1.89,3.97,2.55,6.06,2.1,6.61,1.2,13.41,1.02,20.14-.09,3.38-2.95,3.75-5.87,4.61v-12.2q-6.6,1.09-6.72,7.38c-.1,5.5-.27,5.72-5.82,7.06ZM175.32,52.92l.92,1.25c1.72-.9,4.93-1.87,4.89-2.7-.15-3.52-1.26-6.99-2.03-10.48-.54.04-1.08.07-1.62.11l-2.16,11.82Z"/>
        <path class="cls-2" d="M179.82,90.67c6.7,1.47,10.45,5.85,10.66,12.51.05,1.61-2.74,3.31-3.97,4.68-2.33-4.19-3.69-8.04-6.24-10.76-1.85-1.97-5.29-2.45-8.19-3.66-2.1,4.35.56,10.69-6.34,11.11,0-6.05-.34-12.11.12-18.11.29-3.79,14.95-11.53,18.34-9.95,3.29,1.53,3.13,4.66,1.7,7.13-1.46,2.54-3.87,4.55-6.09,7.05ZM171.47,91.31c.5.37.99.74,1.49,1.11,2.56-2.45,5.37-4.71,7.52-7.48.61-.78-.73-3.07-1.17-4.67-1.62.71-4.02.98-4.71,2.21-1.5,2.69-2.13,5.86-3.12,8.84Z"/>
        <path class="cls-2" d="M141.14,97.68c.4-9.93,3.81-13.84,13.67-15.54,3.43-.59,5.89.87,7.5,3.92,2.64,5,1.62,9.82-1.22,14.17-2.78,4.25-7.14,6.7-12.21,6.71-5.93.02-8-2.8-7.74-9.26ZM158.35,94.24c-.71-1.9-1.16-3.97-2.19-5.71-2.12-3.57-6.43-3.89-7.77-.16-1.32,3.64-1.08,8.05-.59,12,.13,1.1,3.55,2.24,5.55,2.46,1.01.11,2.61-1.62,3.28-2.87.89-1.65,1.13-3.65,1.72-5.72Z"/>
        <path class="cls-2" d="M84.49,83.26c.12,1.06.23,2.12.37,3.4,3.83-1.21,7.54-2.38,11.25-3.55l.49,1c-2.03,1.07-3.97,2.37-6.1,3.16-6.75,2.51-6.78,2.44-6.09,10.33,3.94-1.16,7.75-2.27,11.56-3.39.14.31.28.61.42.92-3.09,1.48-6.24,2.87-9.25,4.5-1.16.62-2.93,1.94-2.82,2.71.29,1.99,1.08,4.24,2.45,5.62.67.68,3.13-.09,4.63-.62,1.59-.56,3-1.61,4.79-1.95-2.95,3.83-6.54,6.86-11.52,7.15-3.38.2-5.99-1.56-6.02-5.41-.05-6.24-.26-12.51.33-18.7.2-2.06,2.64-3.91,4.06-5.85.49.23.97.47,1.46.7Z"/>
        <path class="cls-2" d="M196.7,34.6c-.54,10.13-1.05,19.75-1.57,29.72,4.59-.59,9.03-1.17,14.58-1.88-6.49,5.75-13.62,4.41-20.64,6.01.31-4.26.61-7.81.81-11.37.28-5.13.86-10.29.57-15.4-.24-4.34,1.87-5.87,6.26-7.08Z"/>
        <path class="cls-2" d="M105.27,113.57v-26.72c-3.24.63-5.75,1.12-8.26,1.61,6.15-5.09,13.54-6.06,20.9-7.6-.22,3.88-2.32,5.11-7.57,4.15.38,7.53.57,14.89,1.18,22.21.37,4.42-3.03,4.47-6.26,6.35Z"/>
      </g>
      <g>
        <path class="cls-1" d="M215.74,32c-.14-.26-.76-1.43-1.52-2.87-4.57,3.76-8.9,7.32-13.23,10.88-.21-.24-.43-.49-.64-.73,4.04-3.58,8.14-7.09,12.09-10.77,1.23-1.14,3.14-3.62,2.86-3.98-1.77-2.23-3.35-4.9-7.3-3.81-8.81,2.41-17.74,4.43-26.64,6.5-11.17,2.59-22.36,5.05-33.53,7.64-.98.23-1.83,1.04-2.72,1.6-1.54.98-2.85,2.88-4.78.16-.51-.71-2.65-.27-4.5-.38-1.29-3.82-2.68-7.96-4.29-12.73-3.76,5.26,3.8,11.04-3.61,15.64-1.14-6.01-2.15-11.28-3.39-17.83-.73,1.55-1.7,2.6-1.59,3.53.33,2.89,1.15,5.71,1.63,8.59.4,2.39-.02,4.43-3.65,5.04-1.03-5.39-2.04-10.69-3.09-16.14-2.27.22-3.04,1.8-2.31,4.49.43,1.6.65,3.26,1.05,4.88.67,2.74-.72,3.74-3.36,4.2-.73-2.18-1.4-4.19-2.07-6.19-.41,0-.83,0-1.24,0-.32,2.55-.64,5.1-1.02,8.12-.8.19-2.19.52-4.56,1.08.64-2.91.84-5.38,1.76-7.53,1.12-2.61,2.84-4.96,4.36-7.39.28-.45.79-.97,1.25-1.04,5.74-.88,10.72-4.96,17-3.74,6.53,1.26,11.1,4.9,14.06,10.66,1.29,2.5,2.43,3.4,5.71,2.62,20.16-4.75,40.42-9.09,60.65-13.53,2.67-.59,4.17-1.98,5.24-4.62,3.42-8.43,11.04-12.6,18.96-14.06,7.98-1.47,15.1,2.89,20.11,9.55,4.65,6.19,4.07,14.01-1.19,19.8-7.11,7.82-19.71,9.51-28.85,4.17-1.86-1.09-4.37-1.07-7.66-1.8ZM229.85,4.11c-5.97-.09-9.01,2.48-10.14,7.67,3.39-2.42,3.97.1,4.66,2.33,1.17,3.81,2.31,7.63,3.43,11.46.38,1.31.52,2.7,1.01,3.97.48,1.26,1.25,2.41,1.89,3.6.6-.28,1.2-.55,1.81-.83-1.94-6.12-3.57-12.35-5.93-18.3-1.58-3.99-3.69-7.48,3.29-9.9ZM236.04,4.54c-.28.11-.56.23-.85.34,3,9.35,6,18.71,8.99,28.06.38,0,.76,0,1.14-.01-.14-1.6.06-3.32-.46-4.78-2.84-7.91-5.86-15.75-8.82-23.61ZM231.09,8.12c.85,8.78,5.24,16.77,6.19,26.9.76-1.53,1.82-2.64,1.6-3.35-2.48-7.89-5.16-15.71-7.79-23.55ZM246.2,13.68c-.44.13-.88.26-1.32.39,1.65,4.45,3.31,8.9,4.96,13.35.43-.16.86-.31,1.3-.47-1.65-4.42-3.29-8.85-4.94-13.27Z"/>
        <path class="cls-1" d="M216.22,135.01c-4.96-.78-9-1.36-13.02-2.04-16.28-2.75-32.55-5.51-48.82-8.33-1.86-.32-3.65-1.04-5.48-1.57-.05-.42-.1-.84-.16-1.26,1.54-.42,3.17-1.4,4.59-1.16,14.77,2.45,29.5,5.06,44.24,7.69,5.19.93,10.34,2.07,15.52,3.07.48.09,1.02-.16,2.45-.41-6.82-6.94-13.17-13.39-19.63-19.96,2.38-2.58,4.04-2.74,6.36-.28,5.6,5.95,11.49,11.61,16.58,16.69,6.06-2.82,11.27-6.02,16.94-7.69,7.98-2.36,15.17,1.7,17.88,8.94,2.92,7.78.28,14.87-6.84,19.29-6.65,4.13-13.65,5.23-21.13,3.17-6.51-1.79-9.16-5.35-9.28-12.03-.03-1.63-.15-3.26-.19-4.12ZM245.13,147.56c.61-.21,1.22-.41,1.82-.62-1.82-8.65-7.24-16.08-9.5-24.95-1,.14-2.13.3-3.89.55,4.02,8.69,7.8,16.85,11.57,25.02ZM227.8,122.22c-2.07,2.11-3.17,3.22-4.26,4.33.26.35.53.7.79,1.06,1-.1,2-.21,2.68-.28,3.6,6.63,7.06,12.98,10.52,19.34l1.6-.89c-3.55-7.39-7.1-14.77-11.32-23.57ZM244.81,124.88c-.37.24-.74.47-1.11.71,1.82,4.12,3.63,8.23,5.45,12.35l1.06-.52c.1-5.05-.82-9.63-5.4-12.54ZM232.57,148.11c-2.83-5.39-5.67-10.78-8.5-16.18,2.73,10.92,4.57,14.55,8.5,16.18Z"/>
        <path class="cls-1" d="M62.39,64.45c-5.6,2.17-11.12,4.59-16.83,6.43-3.78,1.22-5.15,2.36-4.09,6.92,1.02,4.41,2.14,7.37,6.86,8.35.87.18,1.37,2.1,1.71,4.01-6.57-3.84-9.1.14-12.72,4.2-10.14,11.36-29.22,8.39-36.23-5.19-2.11-4.08-.91-7.33,1.55-11.36,3.52-5.77,8.38-9.15,14.09-11.68,3.24-1.44,7.04-3.14,10.28-2.65,3.38.51,6.65,3.19,9.46,5.54,2.18,1.82,3.88,2.49,6.6,1.43,6.27-2.44,12.66-4.58,19-6.84.11.28.22.56.33.84ZM23.27,98.52l1.89-.64c-3.13-10-6.27-20.01-9.59-30.63-1,1.11-2.02,1.83-1.91,2.19,3.13,9.72,6.38,19.39,9.61,29.08ZM17.71,96.54c-3.45-7.82-4.27-15.63-9.47-21.79-.08,2.56.44,4.93,1.12,7.25.97,3.32,3.03,6.67,2.85,9.9-.23,4,1.87,3.77,5.49,4.63ZM28.72,93.82c.53-.16,1.07-.32,1.6-.49-2.91-8.54-3.66-17.75-7.65-25.95-.52.16-1.03.32-1.55.48,2.53,8.65,5.07,17.31,7.6,25.96ZM34.74,92c.67-.19,1.35-.39,2.02-.58-1.91-7.05-3.82-14.1-5.74-21.15-.61.17-1.21.34-1.82.51,1.84,7.07,3.69,14.15,5.53,21.22Z"/>
        <path class="cls-1" d="M203.28,74.44c2.84-1.67,5.7-3.31,8.52-5.03,5.37-3.27,5.63-4.67,2.89-8.85-5.25-1.42-9.37-2.44-13.41-3.75-.59-.19-.74-1.75-1.1-2.68.85-.21,1.79-.74,2.54-.56,2.69.67,5.34,1.51,7.96,2.43,2.13.75,3.2.18,4.09-1.98,3.28-7.97,12.09-12.99,21.54-12.53,9.09.44,15.43,5.24,18.31,13.86,2.2,6.56.11,11.73-5.47,15.84-8.77,6.46-23.38,5.03-30.63-1.57-1.07-.97-4.12-.61-5.82.13-3.19,1.39-6.07,3.5-9.08,5.31-.12-.21-.24-.42-.36-.62ZM227.41,43.7c3.26,10.3,6.07,19.24,8.94,28.16.13.39.9.9,1.23.81.57-.15,1.44-.71,1.45-1.12.04-1.21-.03-2.52-.49-3.62-2.28-5.52-4.61-11.02-7.1-16.44-1.71-3.74-1.57-4.19,3.22-5.31,3.51,8.41,7.04,16.87,10.58,25.34.38-.09.77-.18,1.15-.27-.41-1.71-.59-3.53-1.28-5.11-1.95-4.45-4.31-8.73-6.1-13.23-.77-1.93-.54-4.25-.76-6.39.37-.36.75-.73,1.12-1.09-3.63-.52-7.25-1.04-11.96-1.71ZM249.82,64.7c2.32-6.65-1.91-15.34-7.85-16.47,2.64,5.54,5.08,10.66,7.85,16.47ZM229.55,70.46l1.73-.24c-1.91-6.03-4.22-11.93-6.68-17.78-.4.13-.79.26-1.19.39,2.04,5.88,4.09,11.76,6.13,17.64Z"/>
        <path class="cls-1" d="M238.44,113.47c-4.61-1.28-9.3-2.34-13.82-3.91-6-2.08-8-7.37-7.97-12.91.01-2.75,2.29-5.73,4.1-8.2,5.85-8.03,17.35-11.06,26.52-7.27,7.28,3.01,10.96,10.08,9.33,17.97-1.71,8.31-9.02,13.83-18.16,14.32ZM248.53,109.12c1-1.57,1.62-2.56,2.15-3.39-1.06-1.29-2.16-2.19-2.68-3.36-2.7-6.02-5.21-12.12-7.91-18.13-.32-.71-1.43-1.06-2.17-1.57-.29.28-.57.57-.86.85,3.73,8.33,7.46,16.66,11.47,25.59ZM234.91,90.58c-.37.17-.74.33-1.11.5.12,5.04,5.75,17.54,9.74,18.87-3.16-7.09-5.89-13.23-8.63-19.37ZM225.84,87.14c-.43.15-.86.29-1.29.44.95,7.92,5.52,14.3,8.91,21.2.6-.76.76-1.35.58-1.8-2.7-6.62-5.45-13.23-8.19-19.84ZM246.27,86.4c1.95,4.53,3.46,8.04,5.29,12.32,1.4-5.38-.17-9.17-5.29-12.32Z"/>
        <path class="cls-1" d="M139.63,113.1c1.21,2.34,2.25,4.37,3.66,7.09.42-1.39.91-2.14.79-2.77-.93-4.61,1.88-5.51,5.53-6.3,9.16-2,18.25-4.33,27.37-6.53.98-.24,1.98-.42,2.96-.63.1.41.21.81.31,1.22-6.45,1.69-12.91,3.34-19.35,5.07-3.46.93-6.92,1.88-10.3,3.06-.82.29-1.78,1.49-1.88,2.36-1.25,11.12-9.9,14.33-18.59,17.01-6.22,1.92-12.39.15-18.11-2.68-3.93-1.95-5.85-5.37-6.25-9.69-.26-2.81.9-4.45,4.03-4.78.73,3.88.27,8.27,5.76,11-.99-2.96-1.6-5.06-2.4-7.08-1.12-2.82-.43-4.54,2.92-5.07,2.29,5.16,4.6,10.36,6.91,15.57.5-.19,1-.38,1.5-.57-1.17-3.05-2.23-6.14-3.55-9.13-1.26-2.86-.49-4.46,2.73-5.12,3.61,4.55,3.15,11.99,8.84,15.15.56-.35,1.12-.69,1.68-1.04-1.47-2.71-3.01-5.38-4.4-8.13-1.42-2.8-1.18-5.02,2.24-5.92,1.94,3.31,3.77,6.42,5.78,9.85,2.67-4.13-5.21-8.63,1.82-11.93Z"/>
        <path class="cls-1" d="M156.47,73.49c-1.48-1.79-3.13-3.48-4.38-5.42-.62-.96-.49-2.4-.7-3.62,1.37.29,3.45.15,3.96.97,1.31,2.12,1.92,4.67,2.8,7.04l-1.68,1.03Z"/>
        <path class="cls-1" d="M173.96,70.74c3.51-3.05,4.09-2.9,10.27,2.44-3.94,1.73-7.34,1.3-10.27-2.44Z"/>
        <path class="cls-1" d="M107.56,46.72c2.48,1.05,4.08,1.73,5.68,2.41-.49.82-.84,2.2-1.51,2.37-2.67.7-3.48-1.08-4.17-4.79Z"/>
      </g>
    </g>
  </g>
</svg>