<?xml version="1.0" encoding="UTF-8"?>
<svg id="Layer_2" data-name="Layer 2" xmlns="http://www.w3.org/2000/svg" viewBox="0 0 175.18 46.51">
  <defs>
    <style>
      .cls-1 {
        fill: #fff;
      }

      .cls-1, .cls-2 {
        stroke-width: 0px;
      }

      .cls-2 {
        fill: #81858b;
      }
    </style>
  </defs>
  <g id="Layer_1-2" data-name="Layer 1">
    <g>
      <g>
        <path class="cls-1" d="M43.96,33.27c-.28-2.43-.54-4.7-.79-6.98-.26-.06-.53-.11-.79-.17-1.19,2.9,1.29,7.9-4.46,8.29-.17-.67-.37-1.42-.6-2.32-4.94,2-3.97-4.5-7.52-5.1-.25,2.87.2,6.37-4.49,6.7v-7.86c-1.15,3.17,1.58,7.98-4.87,8.91v-7.82c-.42-.17-.84-.34-1.26-.5-.56.95-1.37,1.84-1.61,2.86-.23.94.08,2.04.27,3.05.6,3.13-1.23,4.14-4.13,4.78-.56-6.41-1.89-12.6,1.71-18.41.05-.09.09-.2.17-.26,1.87-1.28,3.74-2.55,5.61-3.83.92,1.74,1.92,3.44,2.74,5.22.35.77.33,1.71.93,2.53-.07-1.18-.22-2.35-.19-3.52.07-2.68,2.23-4.11,4.9-3.44.55.14,1.22-.34,1.85-.4,1.71-.17,3.44-.27,5.15-.39-.12,1.86.03,3.8-.44,5.57-.28,1.06-1.52,1.86-2.48,2.96.52.58,1.12,1.21,1.69,1.87.54.61,1.05,1.25,2.1,2.5,0-2.92-.03-5.17,0-7.43.05-2.89,1.23-5.04,3.84-6.53,2.04-1.16,3.54-.72,4.15,1.27.97,3.15,1.53,6.43,2.22,9.67.26,1.2.4,2.42.6,3.63.53,3.27-1.23,4.62-4.32,5.16ZM29.32,22.75c.38.13.76.26,1.14.38,2.16-1.52,2.75-3.51,1.79-5.96l-.93-.31c-.67,1.96-1.34,3.92-2.01,5.89ZM18.91,19.9l-.79.03c-.25,1.76-.5,3.51-.83,5.85,3.92-1.78,1.86-3.99,1.62-5.88ZM42.41,20.75c-.19.05-.38.09-.58.14.09,1.03.18,2.05.27,3.08.27-.04.54-.08.81-.13-.17-1.03-.33-2.06-.5-3.09Z"/>
        <path class="cls-1" d="M60.45,20.3c1.43-3.75,1.32-7.76,6.31-8.21.98,4.04,1.98,8.18,2.99,12.32.34,1.4.58,2.82,1.01,4.19,1.2,3.88,1.09,4.13-3.42,5.62-.99-3.79-1.98-7.57-3.14-12.02-1.26,3.2-2.21,5.99-5.9,6.16-.76-1.81-1.54-3.65-2.36-5.6-2.55,3.99,1.27,10.23-5.19,12.64-.27-.63-.65-1.09-.61-1.49.62-5.61,1.14-11.24,2.07-16.81.22-1.34,1.7-2.57,2.81-3.64,1.22-1.17,2.19-.59,2.81.85.76,1.78,1.56,3.54,2.64,5.98Z"/>
        <path class="cls-1" d="M129.92,29.76c-2.21,1.24-3.42,1.92-4.77,2.68-2.27-3.67-4.86-6.58-9.27-7.05q-1.02,5.04-4.68,6.18c-.21-4.79-.62-9.51-.47-14.21.03-.97,1.98-2.17,3.27-2.73,1.63-.71,3.5-.83,5.24-1.29,2.39-.62,4.89-1.65,6.59,1.13,1.37,2.23.41,4.82-2.33,6.88-.47.35-1,.64-1.43.91,2.48,2.37,4.91,4.69,7.85,7.49ZM115.07,23.82c2.41-1.01,4.12-1.34,5.27-2.33.89-.77,1.43-2.37,1.43-3.59,0-.79-1.32-2.25-1.97-2.2-1.23.08-3.01.74-3.45,1.68-.81,1.71-.81,3.81-1.28,6.45Z"/>
        <path class="cls-1" d="M.06,39.92c0-4.46,0-8.55,0-12.63,0-4.32.16-8.65-.05-12.96-.15-2.99,1.22-4.32,4.18-4.86.16,1.64.32,3.19.45,4.5,2.4-.43,4.64-1.19,6.88-1.16,2.86.04,3.84,1.84,2.08,4.08-1.79,2.28-4.13,4.28-6.59,5.81-1.95,1.21-2.72,2.45-2.59,4.64.15,2.46-.23,4.97.1,7.4.44,3.16-1.08,4.43-4.45,5.18ZM4.23,21.64l1.22.68c1.29-1.2,2.75-2.28,3.78-3.67.41-.56-.12-1.82-.22-2.76-1.21.23-3.08.07-3.5.78-.85,1.41-.9,3.29-1.28,4.97Z"/>
        <path class="cls-1" d="M109.74,13.57c-.61,2.91-2.28,4.04-4.45,3.74-4.91-.66-6.69,1.04-5.62,6.04,1.26-.24,2.54-.47,3.81-.74,1.26-.27,2.5-.57,3.76-.86.12.28.24.57.35.85-2.36,1.11-4.72,2.21-7.87,3.69,1.4,1.31,2.76,2.57,3.77,3.52,2.06-1.67,3.52-2.86,5.44-4.41.22,1.37.47,1.89.35,2.32-.55,2.04-5.37,5.09-7.96,4.99-3.02-.12-5.19-1.75-5.74-4.67-.58-3.1-.85-6.32-.67-9.46.06-1.01,1.87-2.4,3.12-2.76,3.19-.9,6.51-1.31,9.78-1.92.47-.09.95-.17,1.92-.34Z"/>
        <path class="cls-1" d="M141.23,16.72c-1.76.44-3.51,1.17-5.28,1.24-1.99.07-3.85.58-3.93,2.5-.04,1.07,1.61,2.57,2.85,3.23,1.78.95,3.91,1.19,5.81,1.94,2.53,1,3.02,2.58,1.72,4.85-1.74,3.04-8.43,6.27-12.33,5.81.74-2.04,2.24-2.65,4.17-2.74.88-.04,1.96,0,2.59-.49.82-.62,1.67-1.68,1.75-2.61.05-.64-1.06-1.69-1.88-2.03-2.07-.87-4.34-1.28-6.4-2.16-3.5-1.5-3.96-3.63-1.3-6.39,3.23-3.34,6.99-5.55,11.86-4.39.12.41.24.82.36,1.24Z"/>
        <path class="cls-1" d="M84.83,26.5c-2.32,2.33-4.39,4.05-7.29,4-2.75-.04-4.31-1.97-4.89-4.4-.63-2.66-1.07-5.43-1.14-8.16-.06-2.32,2.36-3.19,4.63-3.13,2.52.07,5.07-.9,8.14-1.52-.69,2.27-2.43,2.76-4.41,3.11-3.99.72-4.25,1.12-3.41,4.8,1.75-.37,3.5-.74,5.25-1.11l.31.6c-1.55.92-3.1,1.83-4.67,2.76.46,3.65.98,3.9,7.49,3.04Z"/>
        <path class="cls-1" d="M97.98,12.15c-1.77,1.04-3.54,2.07-6.08,3.55.18,2.18.36,5.41.73,8.62.35,3-.88,4.65-4.08,5.21-.47-4.46-.94-8.86-1.44-13.65-2.19.8-3.85,1.41-5.5,2.02,4.16-4.94,10.39-4.71,15.61-6.96.25.4.5.81.76,1.21Z"/>
      </g>
      <path class="cls-2" d="M170.56,35.75c1.88.31,3.03,1.69,3.03,3.92,0,2.23-4.48,5.74-7.15,5.72-2.18-.02-4.04-2.19-3.94-4.6.11-2.82,3.66-5.15,8.06-5.04Z"/>
      <path class="cls-2" d="M97.52,35.91c3.55-.07,5.43,2.7,3.75,4.87-1.58,2.03-4.11,3.41-6.44,4.68-.59.32-2.8-.75-2.88-1.36-.24-1.79-.41-4.22.58-5.39,1.32-1.56,3.77-2.16,5-2.8Z"/>
      <path class="cls-2" d="M168.6.49c.58-.17,1.18-.53,1.75-.48,1.47.14,3.89.08,4.18.8.53,1.32.36,3.71-.55,4.63-1.31,1.33-3.48,2.17-5.39,2.46-2.66.4-4.7-1.45-4.83-3.64-.13-2.22,1.69-3.62,4.87-3.73,0,0-.04-.04-.04-.04ZM168.31,2.13c-.06-.07-.16-.2-.17-.19-.15.09-.28.2-.41.3.05.07.14.2.15.2.15-.09.29-.2.44-.31Z"/>
      <path class="cls-2" d="M153.61,9.73c-1.72-.09-3.74-.27-3.95-2.94-.21-2.68,3.53-5.58,7.04-5.57,2.04,0,3.79.43,3.86,2.92.07,2.87-3.17,5.56-6.95,5.58Z"/>
      <path class="cls-2" d="M153.49,37.47c2.03-.05,3.73.4,3.82,2.88.09,2.65-3.7,5.83-6.9,5.84-2.23.01-3.44-1.04-3.41-3.35.04-3.34,2.41-5.31,6.5-5.37Z"/>
      <path class="cls-2" d="M140.23,10.88c-3,.05-4.83-1.39-4.89-3.87-.08-2.82,3.03-5.24,6.72-5.24,2.92,0,5.36,1.67,5.28,3.61-.1,2.14-4.37,5.45-7.11,5.5ZM140.47,3.3c-.78,1.23-1.56,2.18-1.44,2.31.95,1.03,2.03,1.95,3.18,2.74.13.09,1.48-1.25,1.43-1.32-.83-1.13-1.79-2.16-3.18-3.73Z"/>
      <path class="cls-2" d="M128.11,1.26c3.76.02,5.1,2.06,3.3,3.98-1.72,1.84-4.16,3.19-6.54,4.13-.76.3-2.81-1.17-3.35-2.27-.41-.83.29-2.94,1.14-3.49,1.91-1.23,4.22-1.85,5.45-2.34Z"/>
      <path class="cls-2" d="M77.34,36.16c2.03-.79,3.63-1.89,5.2-1.87,1.33.02,3.3,1.07,3.76,2.17.42,1-.5,2.96-1.4,4.01-.93,1.1-2.49,1.75-3.87,2.37-3.33,1.49-4.35.72-3.77-2.89.18-1.1.95-2.1,1.47-3.18-.16-.07-.52-.23-1.39-.61Z"/>
      <path class="cls-2" d="M155.4,13.52c3.64.07,5.4,1.71,4.32,3.56-1.11,1.9-3.21,3.65-5.26,4.41-1.14.43-3.22-1.11-4.59-2.14-.45-.34-.35-2.45.17-2.81,1.94-1.37,4.15-2.36,5.36-3.01Z"/>
      <path class="cls-2" d="M134.99,46.51c-1.57-.99-3.18-1.69-4.33-2.86-.51-.52-.48-2.48.03-2.91,2.38-1.97,5.03-3.85,8.35-2.94,1.21.33,2.77,1.45,3.04,2.51.25.95-.76,2.66-1.7,3.4-1.47,1.16-3.37,1.79-5.4,2.8ZM134.35,39.58c-.2.36-.41.71-.61,1.07.42,1.94,1.85,2.82,3.8,2.85.34,0,.7-1.11,1.06-1.7-1.42-.74-2.83-1.48-4.25-2.21Z"/>
      <path class="cls-2" d="M95.47,9.57c-2.05-.81-4.44-.27-4.49-3-.05-2.66,2.17-3.09,4.25-3.49,1.17-.23,2.31-.7,3.49-.8,1.18-.1,2.38.14,3.57.23-.23,1.31,0,3.18-.78,3.81-1.75,1.41-3.99,2.21-6.03,3.26Z"/>
      <path class="cls-2" d="M106.2,5c-.04-2.98,1.11-3.65,4.08-3.09,1.38.26,2.96-.77,4.43-.71,1.15.05,2.28.88,3.41,1.36-.55,1.02-.86,2.32-1.69,2.99-1.49,1.2-3.21,2.16-4.96,2.95-3.07,1.39-5.22-.11-5.27-3.5ZM109.72,3.16c.58,2.9,1.88,3.66,3.66,3.21.48-.12.67-1.42.99-2.17-1.4-.31-2.8-.62-4.65-1.04Z"/>
      <path class="cls-2" d="M120.87,45.12c-1.72-1.36-3.51-2.09-3.65-3.06-.2-1.39.41-3.32,1.38-4.36,1.2-1.28,3.04-2.2,4.77-2.64,1.17-.3,2.91.17,3.84.96.55.47.51,2.62-.08,3.29-1.79,2.05-3.97,3.74-6.25,5.8ZM122.43,42.66c.88-1.64,1.76-2.52,1.62-3.19-.17-.84-1.18-1.5-1.83-2.24-.57.69-1.61,1.38-1.61,2.07,0,.85.86,1.7,1.82,3.36Z"/>
      <path class="cls-2" d="M166.35,34.06c-1.14-.94-2.61-1.58-2.93-2.58-.3-.95.27-2.63,1.04-3.38,1.29-1.26,2.95-2.54,4.64-2.86,1.51-.29,3.77.19,4.8,1.22,1.51,1.52.25,3.36-1.3,4.36-1.86,1.2-3.94,2.07-6.26,3.25ZM169.11,32.09c.86-1.27,1.84-2.23,1.66-2.54-.53-.94-1.41-1.8-2.36-2.31-.29-.15-1.86,1.24-1.79,1.38.54,1.05,1.35,1.97,2.48,3.47Z"/>
      <path class="cls-2" d="M156.45,27.33c-.41.06.16-.2.58-.05.95.34,2.35.69,2.61,1.4.3.79-.13,2.37-.8,2.91-1.4,1.13-3.08,2.07-4.8,2.58-2.25.67-4.36.16-5.11-2.5-.78-2.78,1.41-3.58,3.29-4.28.98-.36,2.2-.06,4.23-.06ZM153.19,29.42c-.16.54-.32,1.08-.49,1.63l3.08.87c.13-.52.44-1.47.35-1.51-.95-.41-1.96-.68-2.95-.99Z"/>
      <path class="cls-2" d="M167.5,20.14c-.7-.54-2.38-1.33-3.12-2.65-.32-.56,1.08-2.61,2.14-3.3,1.67-1.1,3.65-1.86,5.61-2.33,2.24-.54,3.49,1.06,2.9,3.31-.57,2.16-4.14,4.85-7.53,4.97ZM172.46,15.49c-1.52-.66-2.38-1.22-3.31-1.35-.42-.06-.96.75-1.45,1.16.87.74,1.69,1.57,2.66,2.13.17.1.98-.9,2.09-1.95Z"/>
      <path class="cls-2" d="M105.62,41.63c-.06-2.68,5.36-7.04,7.89-6.26,2.05.64,2.6,2.65,1.47,3.9-1.83,2.01-4.16,3.76-6.61,4.95-1.72.83-2.75-.71-2.75-2.59ZM112.33,39.73c-.83-.77-1.41-1.32-1.99-1.86-.38.61-1.1,1.24-1.07,1.83.04.72.71,1.4,1.1,2.1.56-.6,1.12-1.19,1.96-2.08Z"/>
      <path class="cls-2" d="M81,11.49c-1.35-.92-2.82-1.42-3.26-2.38-.36-.78.18-2.72.89-3.11,2.12-1.17,4.48-2.42,6.81-2.54,2.51-.13,3.48,2.59,1.61,4.31-1.65,1.52-3.87,2.42-6.05,3.72ZM81.56,5.33c-.29.42-.57.84-.86,1.26.86.62,1.72,1.24,2.58,1.85.31-.43.62-.87.93-1.3-.88-.6-1.77-1.21-2.65-1.81Z"/>
    </g>
  </g>
</svg>