<?xml version="1.0" encoding="UTF-8"?>
<svg id="Layer_2" data-name="Layer 2" xmlns="http://www.w3.org/2000/svg" viewBox="0 0 188.64 45.82">
  <defs>
    <style>
      .cls-1 {
        fill: #fff;
      }

      .cls-1, .cls-2 {
        stroke-width: 0px;
      }

      .cls-2 {
        fill: #81858b;
      }
    </style>
  </defs>
  <g id="Layer_1-2" data-name="Layer 1">
    <g>
      <path class="cls-2" d="M121.6.86c.98-.2,2.38-.72,3.78-.73,8.15-.1,16.29-.1,24.44-.12,8.95-.01,17.9,0,27.16,0,.09.39.32,1.45.65,2.94,1.67-.26,3.25-.51,4.98-.77.3,1.03.61,2.07.96,3.25,1.54-.09,3-.18,4.11-.24-.35,1.65-1.01,3.18-.93,4.67.53,9.9,1.2,19.78,1.85,29.67.18,2.67-.72,3.45-3.36,3.16-2.6-.29-5.23-.51-7.84-.45-12.8.3-25.66-.37-38.35,1.99-1.37.25-2.77.51-4.07.98-5.37,1.93-10.82-.74-12.32-6.27-.58-2.14-1.02-4.42-.99-6.62.12-9.17.47-18.34.67-27.51.02-1.13-.42-2.27-.75-3.94ZM154.37,1.66c-.52-.07-.97-.17-1.43-.19q-6.64-.28-8.04,6.24c-.48,2.25-1.9,3.06-4.16,2.35-2.91-.91-4.2,0-4.2,3.1,0,8.9,0,17.79.04,26.69,0,.99.17,1.99.28,3.12,1.2-.08,2.14-.04,3.04-.21,9.31-1.83,18.74-2.24,28.2-2.2,4.96.02,9.93-.06,14.89.02,1.92.03,2.83-.63,2.63-2.6-.07-.65-.08-1.31-.12-1.96-.53-8.68-1.06-17.35-1.6-26.03-.05-.73-.16-1.45-.26-2.33-4.59.39-9.01.91-13.45,1.09-4.53.19-9.07.04-13.67.04-.74-2.45-1.41-4.65-2.16-7.12ZM141.72,4.84c-3.73,0-7.28-.24-10.77.1-1.81.17-3.36,1.33-3.38,3.76-.05,9.63-.24,19.25-.35,28.88,0,.83.07,1.69.27,2.5.55,2.22,2.28,2.96,4.27,2.8,2.15-.17,2.18-1.89,2.07-3.59-.13-2.14-.23-4.29-.24-6.44-.05-7.01.02-14.03-.13-21.04-.08-3.83-.06-4,3.7-3.5,2.84.38,4.2-.49,4.55-3.47ZM180.06,5.75c-.04-.27-.08-.53-.12-.8-.93-.18-1.85-.48-2.78-.5-5.42-.11-10.83-.12-16.25-.25-2.45-.06-2.33,1.12-1.74,2.63,5.97,0,11.74,0,17.52,0,.47,0,.97.08,1.39-.07.69-.25,1.32-.66,1.98-1.01Z"/>
      <g>
        <path class="cls-1" d="M24.86,34.52c.66-6.1,1.09-11.71,1.91-17.26.57-3.86,3.08-6.45,6.6-8.13,3.48-1.66,4.75-1.12,5.69,2.72.35,1.44.5,2.93.73,4.39.22,1.4.42,2.8.63,4.21.37-.01.75-.03,1.12-.04-.08-1.53,0-3.09-.27-4.59-.81-4.55-.4-5.19,4.75-6.46,1.16,5.45,2.33,10.89,3.57,16.73,4.79-5.48,3.05-14.66,12.37-17.25-3.45,8.32-6.43,16-9.89,23.46-.83,1.79-3.27,2.82-5.56,4.69-1.61-5.45-2.97-10.01-4.32-14.57-.43-.02-.87-.03-1.3-.05-.18,1.77-.57,3.54-.51,5.3.16,5.06-.03,5.4-5.59,6.87v-8.67c-3.41-.99-3.93.73-3.71,3.05.38,4.02-2.19,4.88-6.22,5.61ZM30.87,23.8c4.07-1.74,4.33-3.58,1.43-9.52-.44,2.95-.88,5.89-1.43,9.52Z"/>
        <path class="cls-1" d="M4.68,25.7c.78,4.78,3.23,6.82,6.57,7.47,1.44.28,4.28-.37,4.47-1.12.46-1.81.23-4.17-.65-5.82-.72-1.34-2.77-1.99-4.25-2.91-.69-.42-1.43-.75-2.14-1.14-5.13-2.85-7.25-6.77-5.77-10.67,1.29-3.4,7.77-6.61,11.99-5.48,2.87.77,5.53,2.32,8.73,3.71-2.76,3.12-4.71,4.63-8.01,2.14-1.84-1.39-4.37-1.86-6.79-2.83-1.26,3.93-.05,6.51,2.85,8.35,2.5,1.58,5.24,2.79,7.68,4.46,3.32,2.27,4.12,5.8,1.63,8.72-3.49,4.1-7.9,6.87-13.64,6.35-1.17-.11-2.58-.37-3.39-1.11C2.36,34.36.1,32.57,0,30.8c-.08-1.42,2.63-3,4.68-5.1Z"/>
        <path class="cls-1" d="M83.88,38.08c0-8.64-.02-16.69,0-24.74.02-4.49,1.77-5.82,6.25-5.25,2.5.32,5.1,0,7.58.4,3.62.6,6.81,2.23,7.8,6.12,1.05,4.1.11,7.8-3.39,10.49-2.34,1.8-4.83,3.41-7.19,5.18-2.29,1.71-4.46,3.58-6.78,5.26-1.36.99-2.9,1.73-4.28,2.54ZM89.69,12.02v17.91c5.65-.07,10.57-4.85,10.54-10.07-.03-5.1-3.43-7.75-10.54-7.84Z"/>
        <path class="cls-1" d="M67.85,18.59c2.91-.21,5.57-.41,8.23-.6.13.38.27.76.4,1.15-2.78,1.18-5.56,2.36-8.61,3.66.41,2.44.48,5.76,3.75,6.03,2.31.19,4.78-1.47,7.16-2.3-1.04,3.27-6.3,6.56-10.23,6.37-3.74-.18-5.56-1.71-6.15-6.66-.54-4.52-.58-9.17-.25-13.71.34-4.71,2.25-5.16,7.08-4.61,4.62.53,9.38-.27,14.1-.49q-2.21,2.89-15.48,4.72v6.44Z"/>
      </g>
    </g>
  </g>
</svg>