<?xml version="1.0" encoding="UTF-8"?>
<svg id="Layer_2" data-name="Layer 2" xmlns="http://www.w3.org/2000/svg" viewBox="0 0 132.86 47.02">
  <defs>
    <style>
      .cls-1 {
        fill: #fff;
      }

      .cls-1, .cls-2 {
        stroke-width: 0px;
      }

      .cls-2 {
        fill: #81858b;
      }
    </style>
  </defs>
  <g id="Layer_1-2" data-name="Layer 1">
    <g>
      <path class="cls-2" d="M83.27,46.21c.23-13.18.82-26.58-1.83-40.56,5.95-1.59,12.08-3.66,18.37-4.76C105.09-.02,110.56.13,115.95,0c1-.02,2.12.71,3.02,1.33,3.57,2.46,7.13,4.95,10.58,7.57.66.5,1.15,1.58,1.21,2.43.75,10,1.43,20.01,2.06,30.02.25,3.99-.46,4.5-4.44,3.66-.6-.13-1.28.21-1.94.27-14.05,1.28-28.1,2.31-42.23,1.4-.2-.01-.38-.18-.94-.47ZM118.06,6.61c0,2.18-.13,3.48.02,4.75.66,5.46-2.09,6.71-6.75,7.02-4.73.32-9.46.62-14.17,1.11-1.92.2-2.65-.42-2.65-2.28,0-3.42-.03-6.84-.16-10.26-.03-.93-.56-2.65-.69-2.64-2.02.25-4.09.5-5.95,1.25-.77.31-1.54,1.82-1.5,2.75.2,5.62.77,11.23.94,16.85.16,5.29,0,10.59-.03,15.89,0,1.84.36,3.37,2.67,3.3,12.11-.41,24.23-.76,36.33-1.38.93-.05,2.57-2.01,2.53-3.03-.36-8.48-1.02-16.95-1.66-25.42-.05-.69-.45-1.54-.97-1.96-2.31-1.85-4.72-3.57-7.95-5.96ZM112.12,4.99c.34,3.51.67,6.88,1,10.24.23-.02.46-.04.7-.06V2.51c-2.84,0-5.25,0-7.66,0-9.81,0-7.86.52-7.89,7.85-.03,6.57.05,6.57,6.56,6.29,3.89-.17,4.32-.62,4.1-4.55-.04-.77-.09-1.56-.3-2.29-.78-2.76.47-4.12,3.49-4.82Z"/>
      <g>
        <path class="cls-1" d="M26.01,42.5c1.56-8.5,3.06-16.73,4.59-24.95.16-.86.19-1.99.74-2.47,1.2-1.05,2.63-1.95,4.12-2.44.29-.1,1.51,1.83,1.92,2.96,2.71,7.56,5.18,15.21,8.02,22.72,1.02,2.71-.89,2.97-2.29,3.78-2.01,1.17-2.5-.52-3-1.83-.58-1.54-.83-3.21-1.5-4.7-.48-1.08-1.84-2.87-2.09-2.76-1.75.78-4.07,1.63-4.79,3.13-1.36,2.86-1.81,6.14-5.71,6.57ZM32.46,32.29c1.69-.77,2.9-1.33,4.31-1.97-.78-2.3-1.48-4.34-2.18-6.38-.22,0-.44,0-.66,0-.46,2.62-.93,5.24-1.48,8.35Z"/>
        <path class="cls-1" d="M19.91,17.76c-2.21,2.23-3.93,2.9-6.66,1.32-2.23-1.29-5.09-1.49-7.71-2.18-.9,4.58.07,6.25,3.79,7.3,3.38.96,6.84,1.68,10.19,2.75,2.47.8,5.25,2.28,4.91,5.08-.29,2.31-1.88,4.93-3.69,6.49-3.36,2.9-7.46,4.64-12.16,4-.87-.12-1.97-.02-2.55-.51-1.49-1.28-3.14-2.67-3.88-4.38-.25-.59,2.02-2.26,3.56-3.88,1.72,5.49,5.43,6.04,9.51,5.78,2.52-.16,4.47-1.66,4.44-4.03-.02-1.61-1.3-4.04-2.65-4.63-3.8-1.64-7.95-2.49-11.94-3.7-3.85-1.16-6.12-4.48-4.58-7.74.92-1.94,3.15-3.93,5.2-4.54,4.89-1.45,9.77-.95,14.22,2.85Z"/>
        <path class="cls-1" d="M61.75,14.63c-.4,1.71-.66,2.96-1,4.19-.49,1.78-1.06,3.54-1.57,5.32-1.03,3.6-2,7.22-3.09,10.8-.35,1.14-.81,2.34-1.53,3.27-2.42,3.11-4.64,2.85-6.14-.68-2.11-4.97-4.23-9.95-6.16-15-1.62-4.23-1.3-4.67,3.21-6.39,2.17,5.58,4.34,11.15,6.51,16.73.26,0,.52,0,.79,0,.99-4.1,2.19-8.16,2.9-12.31.54-3.13,2.01-5,6.08-5.94Z"/>
        <path class="cls-1" d="M67.66,13.31c.41,2.03.56,2.82.81,4.03,3.28-1.82,6.4-3.55,9.51-5.27.19.33.38.67.57,1-1.98,1.21-3.94,2.46-5.95,3.62q-5.04,2.91-4.13,9.52c2.78-1.49,5.47-2.92,8.55-4.56.07,3.42-2.21,3.75-4.06,4.26-4.55,1.25-5.9,4.05-3.82,8.33,1.21,2.5,3.15,2.83,5.27,1.05,1.28-1.08,2.73-1.97,4.62-3.31-1.24,3.95-7.97,8.31-11.01,7.68-2.49-.51-3.89-2.32-4.02-4.67-.3-5.6-.53-11.23-.25-16.83.07-1.44,2.16-2.77,3.92-4.85Z"/>
      </g>
      <path class="cls-2" d="M124.43,21.2c.34,5.51.91,11.08.82,16.65-.02,1.03-2.63,2.79-4.14,2.9-9.64.68-19.3,1.06-28.95,1.32-1,.03-2.9-1.36-2.92-2.14-.11-4.28.14-8.57.43-12.84.25-3.54,2.82-4.93,5.87-5.06,9.56-.4,19.12-.56,28.89-.82ZM108.63,23.61s0,.06,0,.09c-4.18.2-8.35.46-12.53.57-2.15.05-2.95,1.23-3.02,3.11-.11,3.3-.3,6.62-.06,9.9.06.86,1.56,2.32,2.4,2.33,7.69.05,15.39-.18,23.08-.29,2.33-.03,3.05-1.35,2.92-3.43-.21-3.41-.45-6.81-.62-10.22-.09-1.75-.96-2.15-2.6-2.08-3.19.13-6.38.04-9.58.04Z"/>
    </g>
  </g>
</svg>