<?xml version="1.0" encoding="UTF-8"?>
<svg id="Layer_2" data-name="Layer 2" xmlns="http://www.w3.org/2000/svg" viewBox="0 0 209.23 67.12">
  <defs>
    <style>
      .cls-1 {
        fill: #fff;
      }

      .cls-1, .cls-2 {
        stroke-width: 0px;
      }

      .cls-2 {
        fill: #81858b;
      }
    </style>
  </defs>
  <g id="Layer_1-2" data-name="Layer 1">
    <g>
      <g>
        <path class="cls-1" d="M22.79,38.68c.1-2.11.19-4.66.35-7.21.25-3.94,1.55-4.84,5.68-4.37.87.1,1.83-.61,2.76-.88,2.05-.58,4.11-1.12,6.17-1.68.16.46.32.92.48,1.38-1.76.74-3.45,1.76-5.28,2.16-4.59,1.01-4.96,1.38-4.57,6.46,2.93-1.01,5.85-2.02,8.78-3.03.18.4.36.8.54,1.2-3.01,1.45-6.02,2.89-9.15,4.4-.44,2.21.55,3.75,2.62,4.79,2.04,1.03,3.02-.66,4.56-1.37,4.1-1.88,4.21-5.04,4.24-8.74.03-4.29,3.55-7.96,7.79-8.54,2.42-.33,4.69.6,5.12,2.98.92,5.09,1.61,10.28,1.66,15.43.01,1.29-2.74,2.61-4.23,3.91l-.85-.67c-.15-3.11-.31-6.22-.48-9.65-1.37.26-2.41.46-3.65.69.08,3.52.04,6.95-4.83,7.47-.31-.79-.65-1.65-1.05-2.66-5.08,2.58-9.78,8.46-16.14,2.2-4.77,5.47-10.66,6.97-17.5,4.99-.73-.21-1.61-.39-2.08-.9-1.42-1.51-3.26-3.02-3.72-4.84-.22-.86,2.33-2.42,3.71-3.74,3.87,5.89,7.96,7.68,14.71,6.06-1.79-2.05-3.03-4.07-4.8-5.36-2.34-1.72-5.15-2.77-7.66-4.29-2.89-1.75-5.69-3.73-5.1-7.75.34-2.34,5.02-5.36,8.44-5.53,4.76-.24,8.93,1.4,13.08,4.15-2.46,2.54-4.56,3.53-7.79,1.65-2.4-1.4-5.35-1.87-8.4-2.87-.08,4.38,2.58,5.79,5.05,7.29,3.86,2.35,7.76,4.63,11.54,6.88ZM46.77,27.23c-.43.12-.85.23-1.28.35v6.29c1.33-1.11,2.75-1.8,2.7-2.36-.13-1.46-.91-2.86-1.43-4.28Z"/>
        <path class="cls-1" d="M62.85,36.08q-1.75,8.45-5.98,9.37c0-2.97.04-5.84-.01-8.71-.05-2.67-.39-5.35-.2-8,.09-1.25.84-2.82,1.81-3.53.98-.72,2.6-.56,4.11,0,2.08-.89,4.09-2.06,6.26-2.6,2.21-.54,4.66-.71,5.94,1.99,1.31,2.77-.16,4.62-2.12,6.26-.91.76-1.94,1.38-3.19,2.26,3.82,1.46,7.83,2.72,7.19,7.42-.23,1.73-2.47,3.19-3.92,4.94-1.36-2.9-1.83-5.38-3.32-6.67-1.68-1.46-4.28-1.84-6.56-2.73ZM61.9,34.51c2.52-1,4.49-1.4,5.96-2.49,1.02-.76,1.78-2.45,1.81-3.74.02-.81-1.64-2.42-2.35-2.32-1.24.18-2.76,1.16-3.38,2.25-.96,1.68-1.26,3.74-2.04,6.3Z"/>
        <path class="cls-1" d="M98.65,45.28c0-2.65.07-5.27-.02-7.88-.1-2.67-.18-5.37-.59-8-.78-5.01-.83-5.05,4.81-7.15.37,3.06.72,6.02,1.1,9.17h4.6c-.34-4.1-1.27-8.74,5.43-9.37,0,6.67.24,13.24-.17,19.78-.1,1.53-2.38,2.93-3.66,4.39-.41-.19-.83-.38-1.24-.58v-10.21h-4.63c-1.43,3.47,1.74,9.27-5.62,9.85Z"/>
        <path class="cls-1" d="M95.96,41.57c-2.76,1.35-5.39,3.23-8.3,3.94-6.43,1.57-10.48-2.09-10.03-8.66.36-5.31,1.87-10.03,7.31-12.38.58-.25,1.14-.54,1.73-.74,2.86-.96,6.83.28,7.2,2.46.57,3.3-2.56,3.14-4.37,4.43-.52-.93-.78-1.85-1.38-2.4-1.58-1.45-3.49-1.82-4.07.71-.67,2.92-1.14,6.06-.8,9,.42,3.66,5.04,5.5,8.78,3.96,1.12-.46,2.19-1.04,3.28-1.57.21.42.42.83.63,1.25Z"/>
      </g>
      <g>
        <path class="cls-2" d="M125.48,64.32c1.62-6.09,2.85-11.95,4.77-17.58,1.38-4.01,3.76-7.67,5.55-11.56.72-1.57,1.06-3.32,1.56-4.94-.27-.32-.4-.61-.63-.72-8.97-4.5-10.14-15.63-2.32-22.04,3.82-3.13,8.35-4.49,13.08-5.4,1.71-.33,3.4-.87,5.13-1.04,1.42-.14,2.88.11,4.87.22-.91,1.02-1.37,1.54-1.95,2.2.69.55,1.33,1.08,1.98,1.59,5.71,4.53,7.94,15.08,4.18,21.3-3.31,5.47-8.7,7.08-14.76,6.74-3.95-.22-4.44.4-2.99,4.18.35.9.59,2.04.37,2.94-2.08,8.17-4.24,16.32-6.45,24.46-.5,1.83-1.24,3.11-3.75,2.07-2.7-1.13-5.65-1.62-8.64-2.43ZM155.29,21.11c-.12-.97-.36-2.82-.6-4.67-.86-6.67-7.89-9.18-12.27-8.28-5.57,1.14-8.95,9.36-5.07,13.52,2.59,2.77,6.08,5.06,9.6,6.52,4.3,1.79,8.3-1.56,8.33-7.08ZM135.07,64.3c.25-.42.58-.78.69-1.2,1.88-7.15,3.75-14.3,5.57-21.47.18-.69.32-1.71-.04-2.18-2-2.61-.8-5.07.06-7.6.18-.53.12-1.15.23-2.35-.97.68-1.64.91-1.89,1.36-.74,1.39-1.1,3.01-1.97,4.29-4.54,6.7-5.85,14.53-7.8,22.12-1.32,5.13-.91,5.62,4.25,7.02.17.05.37,0,.91,0ZM146.02,30.86c2.3.14,4.47.37,6.65.39,3.24.04,5.51-1.48,6.67-4.56,1.37-3.62,1.49-7.33.72-11.06-1.56-7.54-7.55-12.08-15.23-11.65-8.28.47-13.25,6-12.05,13.81.59-6,4.71-8.86,9.63-10.65,7.41-2.69,14.43.88,15.28,8.6.2,1.86.27,3.73.39,5.59.14,2.29-.82,4.08-2.8,5.11-2.91,1.52-5.93,2.83-9.26,4.41Z"/>
        <path class="cls-2" d="M189.9,50.79c-1.42.14-2.83.29-4.25.42-4.28.39-8.57.69-12.84,1.18-6.28.72-12.55,1.58-19.18,2.43-.53-5.38-1.11-10.91-1.62-16.45-.15-1.66.44-2.92,2.35-3.16.75,5.78,1.49,11.47,2.27,17.51,4.62-.51,8.79-.95,12.94-1.43,5.48-.63,10.95-1.38,16.43-1.91,3.16-.31,3.49-.39,3.09-3.45-.79-6.03-1.72-12.05-2.63-18.07-.4-2.68-.94-5.35-1.32-8.03-.42-2.96-1.01-3.68-3.95-3.45-4.93.38-9.84.99-14.97,1.09.9-.44,1.77-1.15,2.72-1.27,5.38-.67,10.77-1.21,16.16-1.78,1.51-.16,2.46.28,2.71,2.01,1.41,10.01,2.93,20.01,4.33,30.02.28,2,.74,4.27-2.11,5.06-.05-.24-.09-.48-.14-.72Z"/>
        <path class="cls-2" d="M168.32,43.84c3.93-.4,7.94-.11,11.09-3.2.86-.84,2.57-1.4,3.73-1.18,1.05.19,2.13,1.48,2.66,2.55.24.48-.62,2.06-1.31,2.35-1.34.56-2.93.78-4.38.68-.72-.05-1.36-1.15-2.47-2.17-4.04,1.66-8.34,3.36-12.58,5.19-1.4.6-2.69.68-3.43-.67-.4-.73-.37-1.97-.04-2.78,1.36-3.23,2.92-6.38,4.38-9.57.6-1.32,1.14-2.66,1.49-3.48.28-2.14.2-3.92.82-5.4.37-.87,2.05-1.95,2.8-1.74,1.23.34,2.56,1.47,3.15,2.62.81,1.58-.59,2.74-1.93,3.18-2.48.82-3.32,2.56-3.87,4.93-.54,2.31-1.63,4.5-2.68,7.28,4.61-.19,5.54-4.54,8.64-5.44-.97-4.32-.7-4.9,2.87-6.73.63.34,1.33.58,1.84,1.03.77.67,1.9,1.46,1.95,2.27.05.85-.9,1.83-1.55,2.64-.32.4-.96.77-1.46.77-4.79.02-6.5,4.46-9.73,6.87Z"/>
        <path class="cls-2" d="M208.83,46.56c-4.06.62-8.13,1.23-12.02,1.83-.84-8.98-1.68-18.08-2.52-27.17-.04-.46-.03-.93-.05-1.4-.28-5.11.18-5.67,5.29-6.49,1.54-.24,3.06-.57,4.59-.87.08.2.15.39.23.59-1.45.52-2.86,1.26-4.35,1.5-2.41.39-3.2,1.39-2.94,3.94.87,8.46,1.52,16.94,2.14,25.42.14,1.87.77,2.42,2.62,2.13,2.26-.35,4.57-.4,6.87-.58.05.36.1.73.15,1.09Z"/>
        <path class="cls-2" d="M191.45,62.04c-.3-1.53-.6-2.88-.84-4.24-.28-1.58-1.17-2.16-2.77-2.03-9.41.77-18.83,1.51-28.25,2.2-2.08.15-2.81.98-2.3,3.08.43,1.78,1.02,3.82-2.07,4.58-.42-1.68-.97-3.34-1.17-5.04-.07-.59.63-1.64,1.2-1.85,2.76-1.02,5.55-2.32,8.42-2.61,9.01-.94,18.07-1.44,27.1-2.19,1.47-.12,2.37.14,2.61,1.7.17,1.11.39,2.21.58,3.32.28,1.67-.36,2.7-2.53,3.08Z"/>
        <path class="cls-2" d="M187.46,1.2c0,1.18,0,2.28,0,3.39.03,3.18-1.17,4.56-4.34,4.91-5.36.59-10.73,1.15-16.09,1.71-.24.02-.49-.1-1.41-.31,1.41-.64,2.26-1.25,3.19-1.4,4.32-.68,8.65-1.43,13-1.75,2.25-.16,2.89-.93,2.85-3.03-.05-2.54.06-2.54,2.8-3.52Z"/>
        <path class="cls-2" d="M193.97,0c.25,1.55.45,3.02.73,4.46.36,1.82,1.21,2.81,3.34,2.3,1.93-.47,3.95-.59,5.98-.52-3.21,1.87-6.82,2.59-10.3,2.12-2.33-.31-2.05-3.19-2.28-5.2-.2-1.74.37-2.89,2.52-3.15Z"/>
        <path class="cls-2" d="M209.23,51.44c-2.47.48-4.94.95-7.31,1.41-1.57,2.12,2.67,5.7-2.2,7.11-.49-2.01-1.16-3.86-1.29-5.74-.05-.79.91-2.2,1.65-2.39,2.93-.75,5.96-1.12,8.95-1.63.07.41.14.83.21,1.24Z"/>
        <path class="cls-2" d="M143.19,54.98c1.35-.68,2.14-.87,2.61-1.37.6-.64,1.24-1.5,1.33-2.33.15-1.37-.1-2.79-.2-4.19-.12-1.61.44-2.73,2.65-3.14.2,2.86.61,5.69.53,8.5-.05,1.66-3.17,2.81-6.92,2.53Z"/>
        <path class="cls-2" d="M148.94,66.77c-.28-2.13-.52-4.01-.77-5.94h-4.91c-.05-.23-.09-.47-.14-.7,2.49-.54,4.98-1.07,7.4-1.59,1.84,5.29,1.57,6.69-1.59,8.23Z"/>
      </g>
    </g>
  </g>
</svg>