<?xml version="1.0" encoding="UTF-8"?>
<svg id="Layer_2" data-name="Layer 2" xmlns="http://www.w3.org/2000/svg" viewBox="0 0 242.46 196.48">
  <defs>
    <style>
      .cls-1 {
        fill: #203749;
      }

      .cls-1, .cls-2 {
        stroke-width: 0px;
      }

      .cls-2 {
        fill: #fff;
      }
    </style>
  </defs>
  <g id="Layer_1-2" data-name="Layer 1">
    <g>
      <g>
        <path class="cls-2" d="M109.25,101.02v-18.55c-3.39,2.82-6.42,5.9-10,8.11-2.15,1.33-3.17,2.55-2.79,4.88.61,3.79-1.28,5.59-5.52,6.44,0-2.6.16-5.04-.03-7.45-.35-4.35-.7-8.73-1.45-13.02-.64-3.64,1.75-4.66,4.22-5.59,1.86-.7,4.03-.67,5.83-1.47,5.1-2.27,6.93-1.68,9.35,3.73,3.88-1.57,7.88-2.95,11.65-4.8,3.28-1.61,6.03-1.21,8.06,1.6,2.02,2.79,1.77,6.06-.79,8.29-2.95,2.56-6.22,4.99-9.76,6.56-2.62,1.16-3.42,2.49-3.09,4.98.5,3.82-1.58,5.46-5.66,6.3ZM114.51,82.96c-.34,2.68.91,4.33,4.24,4.09,2.94-.21,5.72-3.25,5.51-6.24-.19-2.74-1.7-4.52-4.49-4.67-1.93-.11-5.37,4.27-5.26,6.82ZM103.32,81.2c-.75-1.24-1.51-3.7-2.43-3.76-1.44-.09-3.56,1.08-4.34,2.36-.84,1.38-.75,3.53-.53,5.28.14,1.13,1.32,3.08,1.88,3.03,1.34-.13,2.96-.94,3.78-2,.9-1.16,1.03-2.92,1.65-4.91Z"/>
        <path class="cls-2" d="M113.69,110.31c-2.46,2.31-4.04,4.13-7.41,2.14-3.67-2.16-5.42-1.4-6.94,2.76-1.12,3.04-1.64,6.38-1.91,9.62-.33,4.04,2.59,5.81,5.94,6.9,3.29,1.08,4.21-1.67,5.78-3.58,1.47-1.79,3.33-3.25,5.3-4.54-1.39,9.01-12.26,14.03-19.79,9.79-.84-.47-2.07-.27-3.11-.32-.2,0-.4.34-.62.46-11.74,6.21-16.43,3.34-16.57-10.14-.02-2.25.18-4.53-.05-6.76-.38-3.59,1.31-5.4,4.96-6.29.36,1.2.71,2.38,1.09,3.68,3.98-.98,7.97-1.97,11.96-2.95.15.43.3.86.46,1.29-2.57,1.02-5.08,2.3-7.74,3.01-5.61,1.5-5.8,1.63-4.59,7.49,3.08-.98,6.16-1.97,9.24-2.95.18.41.37.81.55,1.22-3.22,1.46-6.44,2.92-10.72,4.87,1.66,2.27,2.83,5.54,5.01,6.51,3.79,1.67,7.18-1.55,7.31-5.97.23-7.49,2.77-13.64,9.83-17.3,4.08-2.12,7.81-1.62,12.04,1.06Z"/>
        <path class="cls-2" d="M181.04,119.9c7.35,1.16,10.19,5.68,10.98,12.08.6,4.84.25,5.56-4.96,6.96-2.28-13.38-5.52-16.66-15.29-15.14.1,3.61-.16,7.2-5.49,7.53-.44-6.39-1.14-12.77-1.12-19.15,0-1.41,2.58-2.81,4.47-4.71.78,1.84,1.21,2.85,1.67,3.95,1.84-1.11,3.68-2.35,5.64-3.38,4.38-2.3,7.16-1.73,9.09,1.73,1.93,3.46.99,6.06-3.18,8.83-.41.28-.81.58-1.82,1.29ZM171.39,120.42c2.8-.72,5.25-1.17,7.53-2.04,1.01-.38,2.51-1.83,2.36-2.45-.42-1.79-1.31-3.67-2.57-4.98-.51-.53-2.72-.04-3.72.63-2.97,2-3.89,5.04-3.59,8.83Z"/>
        <path class="cls-2" d="M52.74,92.38c2.25,2.76,3.89,5.58,6.26,7.47,3.32,2.64,6.02,1.09,6.36-3.18.31-3.81-2.4-7.82-6.18-9.23-1.97-.74-4.09-1.29-5.84-2.4-3.4-2.15-4.06-5.93-1.45-8.87,3.65-4.1,10.87-7.91,17.36-2.28-2.06,2.38-4.03,3.58-7.38,1.9-1.48-.74-4.86-.65-5.41.25-1.56,2.58.23,4.79,2.67,6.07,1.5.79,3.2,1.23,4.83,1.76,3.96,1.3,6.06,4.21,6.66,8.13.61,3.96-.73,7.18-4.16,9.6-6.32,4.45-11.53,4.18-15.63-1.04-3.45-4.4-3-6.09,1.89-8.19Z"/>
        <path class="cls-2" d="M160.94,88.89c-.83,5.96-.88,6.03-5.82,7.46,0-5.84-.17-11.57.14-17.28.06-1.15,1.72-2.78,2.97-3.19,3.06-.99,6.28-1.63,9.48-1.98,2.91-.32,5.69,1.05,5.89,4.01.13,1.9-1.65,4.04-2.86,5.89-.51.79-1.74,1.12-2.98,1.86,1.95,1.59,3.94,2.98,5.64,4.66,4.56,4.51,4.19,6.34-1.86,9.15-1.49-5.52-5.5-8.43-10.6-10.59ZM161.16,86.45c1.72-.6,3.74-.83,5.08-1.91,1.07-.86,2.18-3.19,1.73-4.07-.68-1.31-2.64-2.32-4.22-2.62-.65-.12-2.18,1.8-2.48,3-.43,1.71-.11,3.62-.11,5.6Z"/>
        <path class="cls-2" d="M71.53,110.09c-2.16,8.25-3.85,15.72-6.17,22.99-.64,2-3.11,3.42-5.29,5.66-4.61-8.9-8.73-16.84-12.86-24.8,3.48-4.01,4.75-3.97,7.23.53,2.35,4.27,4.54,8.63,6.9,13.14,4.17-5.33.93-14.56,10.18-17.52Z"/>
        <path class="cls-2" d="M140.55,121.46c.14-7.24,5.06-13.23,12.38-13.85,2.46-.21,5.71,1.36,7.56,3.18,3.16,3.1,2.64,10.28-.25,14.08-3.33,4.4-9.55,6.61-13.95,4.97-4.35-1.62-5.84-3.79-5.75-8.38ZM146.13,118.71c-.1,4.74,2.73,8.39,7.12,8.16,3.97-.21,3.54-4.1,3.8-6.7.47-4.81-2.77-8.9-6.47-8.91-3.11-.01-4.33,2.04-4.44,7.45Z"/>
        <path class="cls-2" d="M143.02,75.84c5.11-.02,9.47,4.21,9.38,9.29-.13,7.55-5.83,12.02-12.26,12.62-6.6.62-10.26-3.2-10.23-9.59.03-6.46,6.24-12.3,13.11-12.32ZM135.28,85.03c0,5.91,2.73,9.12,7.85,9,3.95-.09,3.48-3.72,3.64-6.24.27-4.3-3.61-8.5-7.39-8.22-3.74.29-4.03,3.17-4.1,5.45Z"/>
        <path class="cls-2" d="M77.12,78.16c.68,5.79-.49,12,3.58,17.02.43.02.85.03,1.28.05.13-3.76.8-7.6.26-11.26-.62-4.24,1.26-5.78,5.29-6.72.69,6.41,1.6,12.81-1.77,18.49-1.27,2.15-4.54,4.12-6.98,4.22-1.71.07-4.54-2.87-5.14-4.97-1.22-4.24-1.64-8.83-1.57-13.26.03-1.5,2.54-2.95,3.92-4.43.37.28.75.57,1.12.85Z"/>
        <path class="cls-2" d="M184.14,78.79h-7.64c-.12-.34-.24-.67-.36-1.01,1.77-.82,3.48-1.85,5.33-2.41,2.34-.71,4.77-1.33,7.19-1.46,2.4-.12,4.84.56,7.27.61,1.48.03,2.96-.48,4.45-.75l.5,1.42c-2.38.94-4.71,2.43-7.17,2.69-3.19.34-4.03,1.58-3.7,4.56.46,4.2.49,8.46.93,12.66.4,3.78-1.28,5.64-5.15,6.3-.54-7.44-1.07-14.75-1.63-22.61Z"/>
        <path class="cls-2" d="M138.54,110.08c-3.11.98-6.23,1.95-9.97,3.13,0,3.59-.22,7.8.07,11.96.26,3.76-1.34,5.6-5.44,6.41v-19.31c-2.61.13-4.61.22-6.6.32,3.19-4.23,5.96-4.71,21.57-3.7.13.39.25.79.38,1.18Z"/>
      </g>
      <path class="cls-1" d="M156.26,134.74c1.96-2.69,3.53-2.07,5.59-.19,13.09,12,16.52,26.78,12.87,43.65-.95,4.39-1.88,8.82-3.31,13.06-.65,1.94-2.5,3.49-3.81,5.21-.5-.28-1-.55-1.5-.83.61-2.04,1.01-4.17,1.88-6.1,3.52-7.81,4.54-15.91,3.42-25.09-1.81.76-3.17,1.37-4.56,1.91-3.4,1.31-6.69.18-8.17-2.77-1.54-3.06-.29-6.53,3.01-8.35,6.86-3.78,7.03-3.89,2.73-10.48-2.29-3.51-5.29-6.55-8.15-10.03ZM162.15,157.51c-.09,4.14,2.34,6.75,5.1,6.76,2.66.01,3.38-1.76,3.46-3.93.11-2.96-2.38-5.56-5.31-5.11-1.4.22-2.59,1.77-3.26,2.27Z"/>
      <path class="cls-1" d="M75.08,6.32c0,7-.18,14,.06,20.99.18,5.14.57,10.32,1.46,15.38,1.86,10.54,7.92,18.33,16.79,24.1.97.63,1.87,1.37,2.98,2.19-1.79,2.57-3.52,2.43-5.82,1.04-12.25-7.42-18.34-18.59-19.21-32.54-.56-8.99-.26-18.04-.1-27.06.03-1.58,1.28-3.14,1.96-4.71.62.2,1.24.4,1.86.6Z"/>
      <path class="cls-1" d="M36.11,48.19c-3.66-.5-6.9-1.55-7.8-4.67-.6-2.05.3-5.32,1.74-7,2.97-3.48,7.17-5.99,11.89-4.46,2.37.77,4.86,3.18,5.92,5.49,1.25,2.71-.54,5.4-3.32,6.8-2.75,1.39-5.61,2.57-8.42,3.84Z"/>
      <path class="cls-1" d="M22.56,184.41c22.1-15.73,46.69-27.47,66.6-46.3.26.38.52.75.77,1.13-2.23,1.58-4.46,3.15-6.7,4.73.12.36.23.71.35,1.07,1.44-.18,2.92-.69,4.3-.47,2.01.32,4.8.57,5.7,1.9,1.54,2.28-.08,4.51-2.49,5.76-1.28.66-2.58,1.45-3.97,1.74-4.26.88-5.75-.44-6.88-5.78-19.23,12.07-38.45,24.14-57.68,36.21ZM90.81,149.23c-1.83-1.05-2.79-1.94-3.85-2.09-.61-.09-1.39,1.02-2.09,1.58.99.85,1.87,1.91,3.01,2.44.41.19,1.41-.89,2.94-1.93Z"/>
      <path class="cls-1" d="M11.38,45.24c1.74,1.46,4.13,2.6,5.11,4.48,1.4,2.68-.18,5.06-2.66,6.7-3.43,2.27-7.15,3.27-10.85,1.22C1.53,56.84.04,54.72,0,53.16c-.04-1.48,1.45-3.53,2.85-4.41,2.27-1.43,5.02-2.12,8.53-3.5Z"/>
      <path class="cls-1" d="M26.4,31.53c-1.84-1.28-3.56-1.95-4.33-3.2-.41-.66.51-2.64,1.37-3.49,2.54-2.54,5.13-5.16,8.12-7.09,2.49-1.61,5.25-.8,6.86,1.91,1.58,2.65.52,5.17-1.73,6.61-3.15,2.02-6.68,3.46-10.28,5.26Z"/>
      <path class="cls-1" d="M205.15,145.03c2.09.03,4.64,1.31,5.61,4.5,1,3.32-1.2,5.19-3.75,6.65-2.95,1.69-6.26,3.34-9.18.69-1.51-1.38-2.59-4.08-2.53-6.14.08-2.88,5.04-5.7,9.85-5.69Z"/>
      <path class="cls-1" d="M59.84,60.05c-4.31-.68-6.03-2.09-6.19-5.51-.17-3.54,1.48-5.12,5.5-5.6,1.25-.15,2.46-.77,3.65-1.28,2.61-1.11,5.11-1.03,6.65,1.53,1.56,2.61.9,5.36-1.59,7-2.46,1.62-5.33,2.61-8.02,3.87Z"/>
      <path class="cls-1" d="M219.34,170.6c2.47.36,4.58,1.47,4.51,4.68-.08,3.99-5.61,8.59-10.14,8.53-3.64-.05-5.51-2.06-5.43-5.81.08-3.54,5.76-7.46,11.05-7.4Z"/>
      <path class="cls-1" d="M28.83,106.88c.4,4.85-1.63,6.92-4.3,7.82-2.69.91-5.74,1.26-8.56,1.01-.75-.07-2.02-3.41-1.68-4.95.9-4.03,7.07-7.75,11.09-6.73,1.63.42,2.88,2.34,3.45,2.84Z"/>
      <path class="cls-1" d="M223.65,89.12c-4.76-.24-6.99-1.7-7.32-5.24-.36-3.77,1.75-5.1,5.19-5.38,1.93-.15,3.87-1.32,5.71-1.13,1.58.16,3.76,1.29,4.31,2.58.56,1.3,0,3.95-1.05,4.89-2.28,2.01-5.2,3.31-6.84,4.29Z"/>
      <path class="cls-1" d="M188.27,174.08c-3.98-.3-5.77-1.62-6.01-4.7-.26-3.32.93-5.71,4.28-6.63,1.47-.4,3.11-.96,4.5-.66,2.13.45,4.4,1.26,6,2.62.49.41-.55,3.7-1.71,4.74-2.29,2.04-5.17,3.43-7.06,4.62Z"/>
      <path class="cls-1" d="M223.31,163c-1.8-1.35-4.32-2.31-5.16-4.08-1.26-2.65.28-4.93,2.95-6.51,2.93-1.73,5.74-2.78,8.9-.81,3.78,2.36,3.9,6.26.12,8.51-1.88,1.12-4.05,1.74-6.8,2.88Z"/>
      <path class="cls-1" d="M55.84,156.16c-1.85-1.44-4.28-2.37-4.82-3.95-.98-2.89-.16-5.98,3.3-7.05,2.23-.69,4.69-1.14,7-.97,1.43.1,3.66,1.34,3.92,2.45.39,1.63-.07,4.28-1.22,5.27-2.08,1.78-4.95,2.65-8.18,4.25Z"/>
      <path class="cls-1" d="M41.29,145.98c-2.32-2.08-4.52-3.24-5.39-5.03-1.22-2.51,1.2-3.72,3.15-4.55,2.74-1.16,5.53-2.83,8.37-3,4.45-.27,5.98,2.68,3.09,6-2.25,2.58-5.69,4.14-9.23,6.58Z"/>
      <path class="cls-1" d="M43.24,74.04c-1.98-1.86-4.27-3.16-5.04-5.08-.42-1.03,1.46-3.5,2.86-4.64,2.68-2.17,5.72-3.83,9.46-2.14,3.06,1.38,4.1,4.55,1.6,6.63-2.35,1.96-5.32,3.17-8.89,5.22Z"/>
      <path class="cls-1" d="M26.01,159.15c-2.68-1.88-5.2-2.78-6.19-4.54-1.46-2.59.33-4.75,2.82-6.1.23-.13.43-.31.66-.45,2.77-1.64,5.7-3.6,8.71-.97,1.16,1.01,2.35,3.91,1.81,4.6-2.07,2.65-4.84,4.75-7.8,7.46Z"/>
      <path class="cls-1" d="M19.11,72.86c-1.96-1.71-4.11-2.78-4.91-4.48-1.16-2.47,1.12-3.75,3.11-4.65,2.51-1.14,5-2.56,7.65-3.05,1.43-.27,3.95.74,4.56,1.91.59,1.14-.11,3.88-1.18,4.75-2.58,2.09-5.72,3.49-9.24,5.52Z"/>
      <path class="cls-1" d="M242.43,99.87c-.06,3.25-4.52,6.6-8.61,6.49-3.23-.09-5.62-2.39-5.61-5.4,0-2.81,4.85-6.11,8.96-6.1,3.34,0,5.32,1.89,5.26,5.01Z"/>
      <path class="cls-1" d="M242.45,64.78c.23,5.21-3.12,6.51-5.97,7.35-2.06.61-4.64-.35-6.94-.86-.5-.11-1.26-1.61-1.07-1.88,1.54-2.16,3.03-4.48,5.04-6.14,1.98-1.65,4.59-3.04,7.19-1.06,1.02.77,1.51,2.24,1.74,2.59Z"/>
      <path class="cls-1" d="M201.71,124.2c-1.8-1.61-3.96-2.63-4.23-4.02-.27-1.42.89-3.8,2.17-4.68,2.2-1.51,4.91-2.51,7.55-3.07,1.15-.25,3.31.78,3.81,1.8.54,1.12.22,3.54-.67,4.3-2.41,2.07-5.31,3.56-8.63,5.66Z"/>
      <path class="cls-1" d="M119.98,21.93c-2.65-1.04-4.9-1.41-6.39-2.67-1.19-1.02-2.23-3.34-1.87-4.7.34-1.3,2.48-2.27,3.99-3.09,1.19-.65,2.68-.72,3.94-1.27,2.8-1.21,5.39-1.1,7.74.94,2.2,1.91,2.49,4.36.34,6.15-2.31,1.93-5.21,3.16-7.75,4.65ZM121.98,19.98c1.39-1.86,2.83-3.46,2.68-3.64-1.45-1.62-2.99-3.41-4.9-4.24-.8-.35-2.55,1.47-3.87,2.3,1.78,1.63,3.56,3.26,6.1,5.57Z"/>
      <path class="cls-1" d="M131.16,148.56c-4.32,0-5.9-1.49-5.86-5.55.04-3.56,5.65-7.65,10.44-7.66,3.61,0,4.85,2.11,4.87,5.35.03,4.66-3.83,7.86-9.45,7.86ZM136.73,143.6c-.22-4.1-1.75-6-4.5-5.57-1.16.18-2.67,2.32-2.83,3.71-.3,2.59,1.5,4.34,4.14,3.97,1.34-.19,2.5-1.63,3.18-2.11Z"/>
      <path class="cls-1" d="M147.16,58.08c-2.03-1.77-4.41-2.94-5.09-4.75-.5-1.36.76-3.94,2-5.26,2.81-2.98,6.3-4.92,10.63-3.15,4.29,1.74,5.02,5.89,1.28,8.61-2.46,1.79-5.44,2.85-8.83,4.55ZM151.79,54.64c.57-.76,2.13-1.89,2.17-3.07.12-3.38-2.71-4.32-5.35-4.54-.83-.07-2.51,1.76-2.61,2.82-.28,3.14,2.02,4.24,5.79,4.79Z"/>
      <path class="cls-1" d="M146.92,158.11c-3.05.25-5.14-1.04-5.23-4.6-.09-3.57,5.34-7.68,10.11-7.72,3.37-.03,6.01,2.23,5.9,5.06-.14,3.63-5.42,7.28-10.77,7.26ZM150.1,157.19c1.7-2.43,3.48-4.21,3.18-4.69-.98-1.58-2.59-2.96-4.26-3.77-.41-.2-3.02,2.24-2.84,3.08.35,1.59,1.99,2.89,3.92,5.38Z"/>
      <path class="cls-1" d="M143.58,174.89c-3.57-.06-5.5-2.17-5.36-5.87.12-3.36,5.78-7.39,10.42-7.42,3.53-.02,5.5,1.97,5.35,5.39-.17,4.01-5.41,7.98-10.42,7.9ZM151.67,168.02c-2.82-1.73-4.5-3.24-6.43-3.68-.7-.16-2.73,2.2-2.85,3.53-.26,3.02,1.97,4.69,4.77,4.35,1.27-.16,2.33-2.08,4.51-4.2Z"/>
      <path class="cls-1" d="M54.44,171.93c1.67,1.15,3.9,1.88,4.28,3.16.53,1.77.25,4.31-.72,5.88-2.06,3.33-7.7,5.03-11.32,3.44-1.66-.73-3.36-2.63-3.83-4.34-.29-1.07,1.38-3.25,2.7-4.06,2.63-1.62,5.63-2.64,8.89-4.08ZM49.64,174.91c-.66.62-2.81,1.7-2.83,2.82-.06,3.15,2.46,4.62,5.31,4.44,1.13-.07,2.92-1.75,3.07-2.87.41-2.99-1.85-3.98-5.55-4.39Z"/>
      <path class="cls-1" d="M113.01,55.02c-2.06-.32-3-.35-3.88-.62-4.26-1.33-5.21-4.13-2.05-7.16,2.03-1.95,4.66-3.83,7.31-4.39,1.95-.41,5.66.84,6.25,2.3.75,1.87-.18,5.26-1.62,6.92-1.53,1.77-4.51,2.28-6.01,2.96ZM113.21,43.56c-1.87,2.29-2.91,3.58-3.95,4.86,1.79,1.29,3.48,2.77,5.44,3.71.37.17,2.74-2.2,2.52-2.77-.68-1.78-2.15-3.26-4.01-5.81Z"/>
      <path class="cls-1" d="M201.48,36.49c-1.85-2.04-3.88-3.52-4.83-5.51-1.2-2.51-.35-4.93,2.58-6.1,3.04-1.21,5.85-4.1,9.43-1.07,2.98,2.53,3.26,5.57.25,8.06-1.97,1.63-4.36,2.75-7.42,4.62ZM198.69,26.15c.34.82.67,1.64,1.01,2.47,1.68,1.32,3.36,2.65,5.05,3.97.67-.95,2.1-2.49,1.89-2.74-1.33-1.69-2.86-3.32-4.65-4.48-.65-.42-2.17.49-3.3.79Z"/>
      <path class="cls-1" d="M107.22,69.62c-2.44-.79-4.72-.87-5.74-2.04-1.1-1.26-1.83-4.83-1.3-5.17,3.22-2.06,6.73-3.84,10.38-4.91,1.27-.37,4.18,1.24,4.61,2.53.54,1.63-.08,4.44-1.28,5.68-1.79,1.84-4.54,2.75-6.66,3.92ZM106.75,58.31c-1.47,2.03-2.9,3.1-2.9,4.17.02,3.06,2.65,3.78,5,3.74.92-.02,2.76-2.44,2.55-2.77-1.02-1.64-2.57-2.96-4.66-5.15Z"/>
      <path class="cls-1" d="M92.31,63.12c-2.28-2.23-4.39-3.5-5.3-5.36-1.23-2.51.72-4.25,2.95-5.17,2.42-.99,4.92-1.99,7.48-2.39,1.29-.2,3.4.51,4.03,1.5.67,1.06.63,3.56-.17,4.35-2.51,2.47-5.53,4.42-8.99,7.07ZM94.66,51.13c-1.64,1.92-3.67,3.67-3.42,4.12.85,1.49,2.52,2.52,3.88,3.73.93-1.18,2.56-2.34,2.6-3.54.04-1.15-1.59-2.35-3.06-4.3Z"/>
      <path class="cls-1" d="M142.42,38.75c-1.65-1.18-3.62-1.93-4.45-3.35-1.3-2.21.51-3.56,2.4-4.6,1.73-.96,3.27-2.72,5.07-2.98,2.05-.3,5.05-.06,6.26,1.23,1.85,1.98.57,4.61-1.72,6.01-2.19,1.34-4.63,2.28-7.57,3.69ZM145.14,36.52c1.5-1.81,3-2.84,2.98-3.83-.02-.95-1.72-2.7-2.51-2.6-1.29.15-2.44,1.51-3.65,2.36.84,1.07,1.68,2.15,3.18,4.07Z"/>
      <path class="cls-1" d="M182.5,65.45c-2.07-1.92-4.22-3.09-5.06-4.89-1.18-2.54,1.26-3.71,3.22-4.52,2.52-1.04,5.08-2.18,7.73-2.59,1.17-.18,3.24,1.01,3.75,2.1.49,1.07-.01,3.38-.92,4.15-2.41,2.04-5.28,3.54-8.72,5.74ZM185.04,62.89c1.58-1.84,3.37-3.25,3.14-3.8-.56-1.32-1.93-2.82-3.24-3.12-.97-.22-2.35,1.32-3.54,2.07.99,1.32,1.98,2.63,3.64,4.85Z"/>
      <path class="cls-1" d="M176.79,72.09c4.48-2.68,8.69-6.09,13.5-7.89,15.1-5.66,28.05-14.62,40.38-24.72,2.4-1.97,5.04-3.64,7.14-5.13-16.71,17.72-39.55,26.63-61.01,37.75Z"/>
      <path class="cls-1" d="M107.23,39.73c-2.16-1.29-4.68-1.96-5.1-3.28-.42-1.32.84-3.86,2.14-4.88,2.09-1.63,4.73-2.83,7.32-3.45,1.24-.3,3.57.8,4.19,1.93.62,1.14.29,3.74-.63,4.57-2.24,2-5.06,3.34-7.92,5.12ZM113.62,33.28c-2.22-1.19-3.54-2.41-4.87-2.42-.93,0-1.88,1.64-2.81,2.55,1.35.92,2.6,2.14,4.09,2.6.61.19,1.73-1.26,3.59-2.74Z"/>
      <path class="cls-1" d="M87.96,39.53c-3.98-.13-6.4-.72-7.06-3.79-.64-2.95,1.64-3.85,3.71-4.81,1.56-.72,3.13-1.96,4.7-1.96,1.84,0,4.52.58,5.31,1.85,1.33,2.11,1.19,4.94-1.74,6.41-1.96.98-3.97,1.85-4.93,2.29ZM92.58,34.37c-2.25-1.47-3.52-2.71-5.02-3.11-.67-.18-1.78,1.34-2.69,2.09,1.41,1.13,2.73,2.43,4.3,3.28.4.22,1.57-1,3.42-2.26Z"/>
      <path class="cls-1" d="M97.45,164.9c-2.11-1.83-4.28-2.88-5.06-4.57-1.17-2.54.94-4.14,3.15-5.03,2.29-.93,4.63-1.96,7.03-2.27,1.23-.16,3.29.8,3.82,1.84.57,1.11.33,3.53-.53,4.3-2.34,2.09-5.19,3.61-8.42,5.74ZM103.23,158.95c0-.5,0-1,0-1.5-1.34-.72-2.66-1.91-4.03-1.99-.95-.05-1.98,1.44-2.98,2.24,1.29,1.07,2.45,2.51,3.93,3.07.7.26,2.03-1.16,3.08-1.82Z"/>
      <path class="cls-1" d="M170.23,51.7c-4.13-.32-6.26-1.46-6.55-4.49-.28-2.92,1.79-3.76,4.2-4.22,2.18-.42,4.32-1.3,6.5-1.39,1.2-.05,3.03.85,3.5,1.84.47.99.08,3.19-.75,3.85-2.38,1.93-5.18,3.35-6.9,4.41ZM168.39,43.85c-.35.8-.71,1.6-1.06,2.4,1.71.92,3.41,1.83,5.12,2.75.48-1.05.97-2.1,1.45-3.15-1.84-.66-3.67-1.33-5.51-1.99Z"/>
      <path class="cls-1" d="M85.86,10.73c-1.95-1.16-3.63-2.16-5.3-3.15,1.07-1.65,1.81-3.72,3.28-4.85,1.8-1.38,4.15-2.47,6.38-2.72,1.37-.15,3.73,1.18,4.22,2.41.5,1.25-.26,3.8-1.35,4.7-1.91,1.57-4.5,2.32-7.22,3.61ZM87.81,8.29c1.4-1.4,2.17-2.17,2.94-2.94-1.06-1.01-1.97-2.38-3.23-2.88-.57-.23-1.83,1.26-2.77,1.97.85,1.07,1.71,2.15,3.06,3.85Z"/>
      <path class="cls-1" d="M184.11,23.57c-1.89-1.48-4.17-2.42-5-4.09-1.24-2.5,1.23-3.64,3.14-4.57,1.89-.92,3.8-2.24,5.77-2.37,1.64-.12,4,.79,4.89,2.06.63.89-.14,3.73-1.2,4.65-2,1.74-4.65,2.72-7.6,4.33ZM190.86,17.56c-2.59-1.27-4.03-2.25-5.6-2.59-.56-.12-1.45,1.31-2.19,2.03,1.37.97,2.65,2.16,4.17,2.78.53.22,1.63-.95,3.63-2.22Z"/>
      <path class="cls-1" d="M81.03,174.98c-1.9-1.2-4.01-1.81-4.33-2.93-.34-1.2.65-3.26,1.7-4.27,1.67-1.6,3.74-3.03,5.91-3.79,1.46-.51,4.63-.12,4.84.56.55,1.73.59,4.56-.48,5.66-1.97,2.03-4.89,3.14-7.64,4.77ZM87.13,169.16c-1.67-1.46-2.9-3.01-3.34-2.82-1.22.55-2.12,1.83-3.14,2.82.86.77,1.7,2.13,2.59,2.17,1.02.04,2.08-1.09,3.9-2.17Z"/>
      <path class="cls-1" d="M161.59,64.12c-.53-.44-2.87-1.46-3.07-2.81-.19-1.3,1.52-3.42,2.94-4.28,2.19-1.34,4.78-2.34,7.31-2.7,2.96-.42,4.05,1.38,3.1,4.24-1,3.02-5.34,5.76-10.28,5.55ZM169.24,58.69c-1.84-.88-2.92-1.84-3.62-1.62-1.13.35-2.02,1.49-3,2.29,1.02.66,2.02,1.8,3.06,1.84.88.03,1.81-1.21,3.56-2.51Z"/>
      <path class="cls-1" d="M163.08,38.11c-1.86-1.15-3.96-1.73-4.37-2.9-.4-1.14.51-3.51,1.59-4.25,2.4-1.65,5.18-2.92,7.99-3.69.98-.27,3.13,1.13,3.58,2.25.47,1.14,0,3.5-.92,4.2-2.31,1.77-5.1,2.91-7.87,4.39ZM165.19,28.73c-1.36,1.58-2.89,2.96-2.72,3.22.75,1.14,1.87,2.3,3.12,2.74.56.2,2.56-1.56,2.44-1.92-.43-1.25-1.51-2.28-2.83-4.04Z"/>
    </g>
  </g>
</svg>